<svg xmlns="http://www.w3.org/2000/svg" xmlns:xlink="http://www.w3.org/1999/xlink" width="86" height="100" viewBox="0 0 86 100"><defs><style>.a{fill:#fab443;opacity:0.803;}.b,.f{fill:#bf5906;}.b{stroke:#707070;}.c{fill:#fe9c29;}.d{fill:#e17102;}.e{clip-path:url(#a);}.g{clip-path:url(#b);}.h{fill:#9f3701;font-size:24px;font-family:AcuminPro-Bold, Acumin Pro;font-weight:700;}.i,.j,.k{stroke:none;}.j{fill:#9f3701;}.k{fill:#fca707;}</style><clipPath id="a"><path class="a" d="M62.146,0A12,12,0,0,1,72.482,5.9l15.923,27a12,12,0,0,1,0,12.192l-15.923,27A12,12,0,0,1,62.146,78H29.854a12,12,0,0,1-10.336-5.9L3.595,45.1a12,12,0,0,1,0-12.192l15.923-27A12,12,0,0,1,29.854,0Z" transform="translate(1450 2956) rotate(90)"/></clipPath><clipPath id="b"><rect class="b" width="54" height="33" transform="translate(1384 3001)"/></clipPath></defs><g transform="translate(-1158 -1371)"><g transform="translate(1158 1371)"><path class="c" d="M68.1,0A12,12,0,0,1,78.47,5.969l18.023,31a12,12,0,0,1,0,12.063l-18.023,31A12,12,0,0,1,68.1,86H31.9A12,12,0,0,1,21.53,80.031l-18.023-31a12,12,0,0,1,0-12.063l18.023-31A12,12,0,0,1,31.9,0Z" transform="translate(86) rotate(90)"/><path class="d" d="M62.146,0A12,12,0,0,1,72.482,5.9l15.923,27a12,12,0,0,1,0,12.192l-15.923,27A12,12,0,0,1,62.146,78H29.854a12,12,0,0,1-10.336-5.9L3.595,45.1a12,12,0,0,1,0-12.192l15.923-27A12,12,0,0,1,29.854,0Z" transform="translate(82 4) rotate(90)"/><g class="e" transform="translate(-1368 -2952)"><rect class="a" width="99.27" height="16" transform="translate(1372 3041.525) rotate(-60)"/><rect class="a" width="99.27" height="9.962" transform="translate(1389.509 3047.97) rotate(-60)"/></g><g class="f" transform="translate(70 16) rotate(90)"><path class="i" d="M 44.37506484985352 52 L 23.62493705749512 52 C 21.93900680541992 52 20.26773643493652 51.56930160522461 18.79178619384766 50.75447082519531 C 17.31584548950195 49.93962860107422 16.0608959197998 48.75482177734375 15.16261577606201 47.32812881469727 L 5.718166351318359 32.32812881469727 C 4.712206363677979 30.73044013977051 4.180496215820312 28.88800048828125 4.180496215820312 27 C 4.180496215820312 25.11198997497559 4.712216377258301 23.26955986022949 5.718166351318359 21.6718692779541 L 15.16261577606201 6.671870231628418 C 16.0608959197998 5.245180130004883 17.31585693359375 4.060369968414307 18.79179573059082 3.245529890060425 C 20.26773643493652 2.430700063705444 21.93900680541992 2 23.62493705749512 2 L 44.37506484985352 2 C 46.06099700927734 2 47.73226547241211 2.430700063705444 49.20821762084961 3.245539903640747 C 50.68415451049805 4.060369968414307 51.93910598754883 5.245180130004883 52.83738708496094 6.671870231628418 L 62.28182601928711 21.6718692779541 C 63.28778457641602 23.26955986022949 63.81950759887695 25.11198997497559 63.81950759887695 27 C 63.81950759887695 28.88800048828125 63.28778457641602 30.73044013977051 62.28182601928711 32.32812881469727 L 52.83738708496094 47.32812881469727 C 51.93910598754883 48.75482177734375 50.68415451049805 49.93962860107422 49.20821762084961 50.75447082519531 C 47.73226547241211 51.56930160522461 46.06099700927734 52 44.37506484985352 52 Z"/><path class="j" d="M 23.62493896484375 4 C 22.27619552612305 4 20.93917083740234 4.344566345214844 19.75841903686523 4.996421813964844 C 18.57766723632812 5.648292541503906 17.57371520996094 6.596141815185547 16.85507965087891 7.737495422363281 L 7.410633087158203 22.73749351501465 C 6.605865478515625 24.01564788818359 6.180488586425781 25.48958778381348 6.180488586425781 26.9999885559082 C 6.180488586425781 28.51040077209473 6.605865478515625 29.98434066772461 7.410633087158203 31.26250648498535 L 16.85507965087891 46.26251602172852 C 17.57370376586914 47.40385818481445 18.57766723632812 48.35170745849609 19.75841903686523 49.00357818603516 C 20.93917083740234 49.65543365478516 22.27619552612305 50 23.62493896484375 50 L 44.37506866455078 50 C 45.72380828857422 50 47.06082153320312 49.65543365478516 48.24158477783203 49.00357818603516 C 49.42233657836914 48.35170745849609 50.42630004882812 47.40385818481445 51.14492797851562 46.26251602172852 L 60.58935928344727 31.26249504089355 C 61.39412689208984 29.98434066772461 61.81950378417969 28.51040077209473 61.81950378417969 26.9999885559082 C 61.81950378417969 25.48958778381348 61.39412689208984 24.01564788818359 60.58935928344727 22.73748207092285 L 51.14492797851562 7.737495422363281 C 50.42629241943359 6.596141815185547 49.42233657836914 5.648292541503906 48.24157333374023 4.996421813964844 C 47.06082153320312 4.344566345214844 45.72379684448242 4 44.37505340576172 4 L 23.62493896484375 4 M 23.62493896484375 0 L 44.37505340576172 0 C 48.49835968017578 0 52.33290100097656 2.116966247558594 54.52985382080078 5.606246948242188 L 63.97428894042969 20.60623550415039 C 66.4345703125 24.51372909545898 66.4345703125 29.48625946044922 63.97428894042969 33.39375305175781 L 54.52985382080078 48.39376449584961 C 52.33290100097656 51.88303375244141 48.49835968017578 54 44.37506866455078 54 L 23.62493896484375 54 C 19.50163269042969 54 15.66709136962891 51.88303375244141 13.47014999389648 48.39376449584961 L 4.025703430175781 33.39375305175781 C 1.565422058105469 29.48625946044922 1.565422058105469 24.51372909545898 4.025703430175781 20.60623550415039 L 13.47014999389648 5.606235504150391 C 15.6671028137207 2.116966247558594 19.50163269042969 0 23.62493896484375 0 Z"/></g><g class="g" transform="translate(-1368 -2952)"><g class="f" transform="translate(1438 2968) rotate(90)"><path class="i" d="M 44.37506484985352 52 L 23.62493705749512 52 C 21.93900680541992 52 20.26773643493652 51.56930160522461 18.79178619384766 50.75447082519531 C 17.31584548950195 49.93962860107422 16.0608959197998 48.75482177734375 15.16261577606201 47.32812881469727 L 5.718166351318359 32.32812881469727 C 4.712206363677979 30.73044013977051 4.180496215820312 28.88800048828125 4.180496215820312 27 C 4.180496215820312 25.11198997497559 4.712216377258301 23.26955986022949 5.718166351318359 21.6718692779541 L 15.16261577606201 6.671870231628418 C 16.0608959197998 5.245180130004883 17.31585693359375 4.060369968414307 18.79179573059082 3.245529890060425 C 20.26773643493652 2.430700063705444 21.93900680541992 2 23.62493705749512 2 L 44.37506484985352 2 C 46.06099700927734 2 47.73226547241211 2.430700063705444 49.20821762084961 3.245539903640747 C 50.68415451049805 4.060369968414307 51.93910598754883 5.245180130004883 52.83738708496094 6.671870231628418 L 62.28182601928711 21.6718692779541 C 63.28778457641602 23.26955986022949 63.81950759887695 25.11198997497559 63.81950759887695 27 C 63.81950759887695 28.88800048828125 63.28778457641602 30.73044013977051 62.28182601928711 32.32812881469727 L 52.83738708496094 47.32812881469727 C 51.93910598754883 48.75482177734375 50.68415451049805 49.93962860107422 49.20821762084961 50.75447082519531 C 47.73226547241211 51.56930160522461 46.06099700927734 52 44.37506484985352 52 Z"/><path class="k" d="M 23.62493896484375 4 C 22.27619552612305 4 20.93917083740234 4.344566345214844 19.75841903686523 4.996421813964844 C 18.57766723632812 5.648292541503906 17.57371520996094 6.596141815185547 16.85507965087891 7.737495422363281 L 7.410633087158203 22.73749351501465 C 6.605865478515625 24.01564788818359 6.180488586425781 25.48958778381348 6.180488586425781 26.9999885559082 C 6.180488586425781 28.51040077209473 6.605865478515625 29.98434066772461 7.410633087158203 31.26250648498535 L 16.85507965087891 46.26251602172852 C 17.57370376586914 47.40385818481445 18.57766723632812 48.35170745849609 19.75841903686523 49.00357818603516 C 20.93917083740234 49.65543365478516 22.27619552612305 50 23.62493896484375 50 L 44.37506866455078 50 C 45.72380828857422 50 47.06082153320312 49.65543365478516 48.24158477783203 49.00357818603516 C 49.42233657836914 48.35170745849609 50.42630004882812 47.40385818481445 51.14492797851562 46.26251602172852 L 60.58935928344727 31.26249504089355 C 61.39412689208984 29.98434066772461 61.81950378417969 28.51040077209473 61.81950378417969 26.9999885559082 C 61.81950378417969 25.48958778381348 61.39412689208984 24.01564788818359 60.58935928344727 22.73748207092285 L 51.14492797851562 7.737495422363281 C 50.42629241943359 6.596141815185547 49.42233657836914 5.648292541503906 48.24157333374023 4.996421813964844 C 47.06082153320312 4.344566345214844 45.72379684448242 4 44.37505340576172 4 L 23.62493896484375 4 M 23.62493896484375 0 L 44.37505340576172 0 C 48.49835968017578 0 52.33290100097656 2.116966247558594 54.52985382080078 5.606246948242188 L 63.97428894042969 20.60623550415039 C 66.4345703125 24.51372909545898 66.4345703125 29.48625946044922 63.97428894042969 33.39375305175781 L 54.52985382080078 48.39376449584961 C 52.33290100097656 51.88303375244141 48.49835968017578 54 44.37506866455078 54 L 23.62493896484375 54 C 19.50163269042969 54 15.66709136962891 51.88303375244141 13.47014999389648 48.39376449584961 L 4.025703430175781 33.39375305175781 C 1.565422058105469 29.48625946044922 1.565422058105469 24.51372909545898 4.025703430175781 20.60623550415039 L 13.47014999389648 5.606235504150391 C 15.6671028137207 2.116966247558594 19.50163269042969 0 23.62493896484375 0 Z"/></g></g></g><text class="h" transform="translate(1201 1429)"><tspan x="-6.696" y="0">3</tspan></text></g></svg>