<svg xmlns="http://www.w3.org/2000/svg" xmlns:xlink="http://www.w3.org/1999/xlink" width="733" height="571" viewBox="0 0 733 571"><defs><style>.a{clip-path:url(#a);}.b{fill:#ffdbda;}.c{fill:#ffc1ba;}.d{fill:#09ad51;}.e{fill:#35bf79;}.f{fill:#e9e9e8;}.g{fill:#1d1d1d;}.h,.i{fill:#fff;}.i,.j{stroke:#000;stroke-miterlimit:10;stroke-width:2px;}.j{fill:#d2982b;}.k{fill:#31714d;}.l{fill:#f2f2f2;}.m{fill:#a2e149;}.n{fill:#387c57;}</style><clipPath id="a"><rect width="733" height="571" transform="translate(0 -0.286)"/></clipPath></defs><g class="a" transform="translate(0 0.286)"><g transform="translate(0 0.009)"><g transform="translate(220.855 102.993)"><g transform="translate(0 0)"><path class="b" d="M910.344,399.955h10.008s5.712-1.438,9.824,2.673c2.814,2.814,3.531,8.3,5.439,10.608a26.976,26.976,0,0,0,3.243,3.308l7.8,6.683L939.1,432.84s-2.543-5.561-10.986-4.806c-7.6.679-14.423-2.068-16.479-6.18s-3.433-2.746-7.553-4.806l6.179-4.806c1.593-1.593,2.06-6.18.687-6.866Z" transform="translate(-887.604 -397.822)"/><g transform="translate(0 2.133)"><rect class="b" width="37.131" height="5.419" rx="2.71"/><path class="c" d="M841.312,410.823c0,.012,0,.024,0,.037a2.71,2.71,0,0,0,2.71,2.71h31.711a2.71,2.71,0,0,0,2.71-2.709h0c0-.012,0-.024,0-.036Z" transform="translate(-841.308 -408.15)"/><path class="c" d="M921.409,413.679s3.045-1.214,2.9,3.169,2.99-5.877,2.99-5.877h-6.226Z" transform="translate(-900.133 -408.259)"/></g><rect class="b" width="6.765" height="18.428" rx="3.383" transform="matrix(0.251, -0.968, 0.968, 0.251, 6.007, 17.042)"/><rect class="c" width="4.733" height="10.584" rx="2.366" transform="translate(23.058 13.088) rotate(-30.001)"/><g transform="translate(22.409 0)"><rect class="b" width="5.419" height="11.538" rx="2.71" transform="translate(0.686 12.322) rotate(-30)"/><rect class="b" width="15.106" height="5.419" rx="2.71" transform="translate(0 13.082) rotate(-60)"/></g><g transform="translate(25.841 1.357)"><rect class="c" width="5.419" height="11.538" rx="2.71" transform="translate(0.687 10.966) rotate(-30)"/><rect class="c" width="13.539" height="5.419" rx="2.71" transform="translate(0 11.726) rotate(-60)"/></g><g transform="translate(27.215)"><rect class="b" width="5.419" height="11.538" rx="2.71" transform="translate(0.686 12.322) rotate(-30)"/><rect class="b" width="15.105" height="5.419" rx="2.71" transform="translate(0 13.082) rotate(-59.999)"/></g><g transform="translate(33.032 3.435)"><rect class="c" width="4.733" height="13.732" rx="2.366" transform="translate(0 8.572) rotate(-25.733)"/><path class="c" d="M972.689,416.912h0a2.367,2.367,0,0,0,3.166-1.082l2.421-4.935c.576-1.174.633-4.722-.54-5.295l-.542,2.131a2.367,2.367,0,0,0-3.167,1.082l-2.421,4.935A2.366,2.366,0,0,0,972.689,416.912Z" transform="translate(-970.255 -405.599)"/></g><g transform="translate(30.219 1.581)"><rect class="c" width="4.733" height="13.732" rx="2.366" transform="translate(0.066 9.053) rotate(-25.733)"/><rect class="c" width="12.081" height="4.732" rx="2.366" transform="matrix(0.525, -0.851, 0.851, 0.525, 0, 10.282)"/></g><g transform="translate(31.659 1.376)"><rect class="b" width="4.733" height="13.732" rx="2.366" transform="translate(0 10.631) rotate(-25.733)"/><rect class="b" width="13.733" height="4.733" rx="2.366" transform="matrix(0.44, -0.898, 0.898, 0.44, 0.313, 12.332)"/></g><path class="c" d="M897.124,465.98" transform="translate(-882.472 -446.694)"/><path class="c" d="M897.124,465.312s6.964,1.243,9.543,5.055,5.309,4.3,5.309,4.3-4.787-4.606-5.474-8.038S902.163,466.746,897.124,465.312Z" transform="translate(-882.472 -446.026)"/><path class="c" d="M988.625,502.062s4.794-3.244,8.122-1.671,6.825,3.68,6.825,3.68l-1.781,5.463s-1.43-5.791-5.692-7.023Z" transform="translate(-949.952 -471.754)"/></g><g transform="translate(17.061 24.505)"><circle class="d" cx="15.106" cy="15.106" r="15.106" transform="translate(69.453 37.979)"/><path class="d" d="M1029.437,497.35l9.484-10.912a1.683,1.683,0,0,1,2.342-.191l50.9,42.143-19.1,23.177-43.649-52.032A1.682,1.682,0,0,1,1029.437,497.35Z" transform="translate(-996.807 -485.86)"/><path class="d" d="M906.3,753.36l70.679-56.13,28.986-4.83-41.2,62.036Z" transform="translate(-906.3 -638.18)"/><path class="d" d="M1155.33,686.062s4.2-3.383-1.053-10.249l5.935-3.433,5.285,11.673Z" transform="translate(-1089.179 -623.416)"/></g></g><g transform="translate(123.917 309.531)"><g transform="translate(3.764 66.526)"><path class="b" d="M508.478,1473.267c-2.235-.523-6.771,1.021-6.629,2.58l-4.067,3.942-5.371-8.677s-4.312-4.181-2.954-9.949c.931-3.95,5.295-7.514,6.279-10.409a27.388,27.388,0,0,0,1.129-4.589l-1.129-13.467,15.128,4.509s-3.457,5.189,1.728,12.1c4.667,6.226,5.947,13.616,3.485,17.605,0,0-1.267,7.728-2.846,9.029S508.478,1473.267,508.478,1473.267Z" transform="translate(-488.454 -1432.699)"/><g transform="translate(3.801 31.564)"><rect class="b" width="37.871" height="5.527" rx="2.764" transform="translate(0 37.865) rotate(-88.912)"/><path class="c" d="M511.232,1590.99c.013,0,.024,0,.037,0a2.763,2.763,0,0,0,2.816-2.709h0l.617-32.331a2.763,2.763,0,0,0-2.709-2.816h-.039Z" transform="translate(-508.51 -1553.086)"/><path class="c" d="M515.7,1594.339a41.743,41.743,0,0,1,5.056-6.087c2.8-2.8-7.7.03-7.7.03l-.121,6.349Z" transform="translate(-509.76 -1578.069)"/></g><rect class="b" width="6.899" height="18.792" rx="3.449" transform="matrix(0.968, -0.251, 0.251, 0.968, 14.557, 27.611)"/><path class="c" d="M551.936,1538.5s2.414-.271,2.8,1.018,5.288,11.791,5.288,11.791,1.4-4.2,3.269-10.6a10.284,10.284,0,0,0,.127-4.736s-.913,4.317-7.056,3.175C556.365,1539.149,553.65,1537.6,551.936,1538.5Z" transform="translate(-534.727 -1508.863)"/><rect class="c" width="10.793" height="4.826" rx="2.413" transform="translate(14.404 38.652) rotate(-61.769)"/><g transform="translate(3.433 28.334)"><rect class="b" width="11.765" height="5.526" rx="2.763" transform="translate(9.67 10.365) rotate(-61.769)"/><rect class="b" width="15.404" height="5.526" rx="2.763" transform="matrix(1, -0.031, 0.031, 1, 0, 8.117)"/></g><g transform="translate(3.185 25.357)"><rect class="c" width="11.765" height="5.526" rx="2.763" transform="translate(8.076 10.365) rotate(-61.769)"/><rect class="c" width="13.813" height="5.529" rx="2.765" transform="matrix(1, -0.031, 0.031, 1, 0, 8.065)"/></g><g transform="translate(0.852 24.166)"><rect class="b" width="11.765" height="5.526" rx="2.763" transform="translate(9.673 10.365) rotate(-61.769)"/><rect class="b" width="15.412" height="5.529" rx="2.765" transform="matrix(1, -0.031, 0.031, 1, 0, 8.113)"/></g><g transform="translate(0.914 18.477)"><rect class="c" width="13.997" height="4.824" rx="2.412" transform="matrix(0.537, -0.843, 0.843, 0.537, 7.383, 11.799)"/><path class="c" d="M502.386,1538.152h0a2.413,2.413,0,0,0-2.637-2.165h0l-5.578.549c-1.326.131-4.434,1.985-4.305,3.311l2.138-.673a2.413,2.413,0,0,0,2.638,2.166l5.578-.551a2.413,2.413,0,0,0,2.168-2.636Z" transform="translate(-489.862 -1527.34)"/></g><g transform="translate(1.423 21.595)"><rect class="c" width="13.997" height="4.824" rx="2.412" transform="matrix(0.537, -0.843, 0.843, 0.537, 7.158, 11.799)"/><rect class="c" width="12.321" height="4.826" rx="2.413" transform="translate(0 8.981) rotate(-0.057)"/></g><g transform="translate(0 19.655)"><rect class="b" width="14.004" height="4.826" rx="2.413" transform="translate(9.033 11.809) rotate(-57.487)"/><rect class="b" width="14.001" height="4.825" rx="2.413" transform="translate(0 9.795) rotate(-5.625)"/></g><path class="c" d="M595.1,1603.731" transform="translate(-566.56 -1558.833)"/><path class="c" d="M564.757,1462.417s-5.386-2.415-5.807-6.146-.473-7.892-.473-7.892l3.481.391s-2.042,2.569-.823,6.924Z" transform="translate(-539.551 -1444.263)"/></g><path class="d" d="M500.443,1250.745l-18.284,1.026a2.04,2.04,0,0,1-2.269-1.55l-7.849-67.088,30.378-3.851v69.9A1.97,1.97,0,0,1,500.443,1250.745Z" transform="translate(-472.041 -1179.282)"/></g><g transform="translate(159.905 291.509)"><g transform="translate(0.554 28.641)"><circle class="b" cx="9.892" cy="9.892" r="9.892" transform="translate(0 64.229)"/><path class="b" d="M664.243,1219.73l-9.92,74.121h-31.08l-.922-74.121Z" transform="translate(-619.412 -1219.73)"/><path class="b" d="M625.834,1502.079l6.06,96.589h27.584l-2.294-96.589Z" transform="translate(-622.002 -1427.958)"/></g><g transform="translate(48.848 28.641)"><circle class="b" cx="9.892" cy="9.892" r="9.892" transform="translate(0 64.229)"/><path class="b" d="M848.212,1219.73l-9.919,74.121H807.211l-.921-74.121Z" transform="translate(-803.381 -1219.73)"/><path class="b" d="M809.8,1502.079l6.06,96.589h27.584l-2.294-96.589Z" transform="translate(-805.969 -1427.958)"/></g><rect class="e" width="94.261" height="66.332" transform="translate(0.582 0.581)"/><g transform="translate(0 0)"><path class="f" d="M613.09,1139.609h-1.745v-26.765h28.511a26.765,26.765,0,0,1-26.765,26.765Z" transform="translate(-610.763 -1112.263)"/><path class="g" d="M611.455,1138.558h-2.327v-27.929H638.8v.582A27.378,27.378,0,0,1,611.455,1138.558Zm-1.164-1.164h1.164a26.215,26.215,0,0,0,26.178-25.6H610.292Z" transform="translate(-609.128 -1110.629)"/></g><g transform="translate(65.75 0)"><path class="f" d="M861.808,1112.843h28.511v26.765h-1.746a26.766,26.766,0,0,1-26.766-26.765Z" transform="translate(-861.226 -1112.261)"/><path class="g" d="M889.267,1138.558h-2.327a27.378,27.378,0,0,1-27.347-27.348v-.582h29.675Zm-28.5-26.766a26.216,26.216,0,0,0,26.177,25.6H888.1v-25.6Z" transform="translate(-859.592 -1110.629)"/></g><g transform="translate(47.422 29.966)"><path class="h" d="M793.208,1262.543h-2.327v-36.657h2.327Z" transform="translate(-790.59 -1225.595)"/><path class="h" d="M792.682,1262.017h-2.909v-37.239h2.909Zm-2.327-.582H792.1V1225.36h-1.746Z" transform="translate(-789.773 -1224.778)"/></g><g transform="translate(40.148)"><path class="h" d="M773.593,1144.847h0a9.31,9.31,0,0,1-9.31-9.31v-22.693h9.31Z" transform="translate(-763.701 -1112.263)"/><path class="h" d="M772.54,1143.795h-.582a9.9,9.9,0,0,1-9.892-9.892v-23.274H772.54Zm-9.309-32v22.11a8.74,8.74,0,0,0,8.146,8.709v-30.819Z" transform="translate(-762.066 -1110.629)"/></g><path class="h" d="M624.2,1251.825a.581.581,0,0,1-.582-.582V1249.5a.582.582,0,1,1,1.164,0v1.745A.582.582,0,0,1,624.2,1251.825Zm0-5.237a.582.582,0,0,1-.582-.582v-1.746a.582.582,0,0,1,1.164,0v1.746A.582.582,0,0,1,624.2,1246.589Zm0-5.237a.581.581,0,0,1-.582-.582v-1.746a.582.582,0,0,1,1.164,0v1.746a.582.582,0,0,1-.582.582Zm0-5.237a.582.582,0,0,1-.582-.582v-1.745a.582.582,0,0,1,1.164,0v1.745A.582.582,0,0,1,624.2,1236.115Zm0-5.237a.581.581,0,0,1-.582-.582v-1.746a.582.582,0,0,1,1.164,0v1.746A.582.582,0,0,1,624.2,1230.878Zm0-5.237a.582.582,0,0,1-.582-.582v-1.745a.582.582,0,1,1,1.164,0v1.746A.582.582,0,0,1,624.2,1225.641Zm0-5.237a.582.582,0,0,1-.582-.582v-1.746a.582.582,0,1,1,1.164,0v1.746A.582.582,0,0,1,624.2,1220.4Zm0-5.237a.582.582,0,0,1-.582-.582v-1.745a.582.582,0,0,1,1.164,0v1.745A.582.582,0,0,1,624.2,1215.168Z" transform="translate(-619.813 -1185.579)"/><path class="h" d="M954.456,1251.825a.582.582,0,0,1-.582-.582V1249.5a.582.582,0,1,1,1.164,0v1.745a.581.581,0,0,1-.582.582Zm0-5.237a.582.582,0,0,1-.582-.582v-1.746a.582.582,0,0,1,1.164,0v1.746A.582.582,0,0,1,954.456,1246.589Zm0-5.237a.582.582,0,0,1-.582-.582v-1.746a.582.582,0,0,1,1.164,0v1.746A.582.582,0,0,1,954.456,1241.352Zm0-5.237a.582.582,0,0,1-.582-.582v-1.745a.582.582,0,0,1,1.164,0v1.745A.582.582,0,0,1,954.456,1236.115Zm0-5.237a.582.582,0,0,1-.582-.582v-1.746a.582.582,0,0,1,1.164,0v1.746A.582.582,0,0,1,954.456,1230.878Zm0-5.237a.582.582,0,0,1-.582-.582v-1.746a.582.582,0,0,1,1.164,0v1.746a.582.582,0,0,1-.582.582Zm0-5.237a.582.582,0,0,1-.582-.582v-1.746a.582.582,0,0,1,1.164,0v1.746a.581.581,0,0,1-.582.581Zm0-5.237a.582.582,0,0,1-.582-.582v-1.745a.582.582,0,0,1,1.164,0v1.745A.582.582,0,0,1,954.456,1215.168Z" transform="translate(-863.373 -1185.579)"/></g><path class="i" d="M725.71,943.337c3.491-.1,18.169,0,21.078,10.474,0,0-15.919-4.919-42.475-.582C704.312,953.229,706.377,943.919,725.71,943.337Z" transform="translate(-519.421 -695.733)"/><g transform="translate(184.81 251.1)"><path class="h" d="M716.444,985.291c-2.354-.759-5.069-4.23-7.353-9.445a40.213,40.213,0,0,1-2.487-7.54c-.541-2.562-.434-3.949-.153-4.392a12.036,12.036,0,0,1,4.442-3.808c.367,2.44,2.179,5.545,5.4,9.248a65.244,65.244,0,0,0,5.058,5.162Z" transform="translate(-705.637 -959.213)"/><path d="M708.849,958.491a10.77,10.77,0,0,0-3.543,3.223,2.549,2.549,0,0,0-.14,1.2,15.87,15.87,0,0,0,.376,2.78,40.273,40.273,0,0,0,2.465,7.449,29.885,29.885,0,0,0,3.6,6.277,9.019,9.019,0,0,0,2.9,2.611l4.5-9.883a65.116,65.116,0,0,1-4.792-4.925,35.451,35.451,0,0,1-3.786-5.11,14.238,14.238,0,0,1-1.582-3.623m.92-1.791c0,5.819,10.651,15.157,10.651,15.157l-5.283,11.6c-6.4-1.164-12.641-19.487-10.813-22.37a13.356,13.356,0,0,1,5.446-4.392Z" transform="translate(-704 -956.7)"/><g transform="translate(12.881 15.157)"><path class="h" d="M757.94,1030.767l-2.221-2.591,2.25-4.42Z" transform="translate(-755.023 -1021.31)"/><path d="M755.423,1019.328l-.963,1.89.95,1.109.013-3m1.184-4.891-.046,11.021-3.491-4.073Z" transform="translate(-753.07 -1014.436)"/></g></g><g transform="translate(209.911 251.099)"><g transform="translate(1.825)"><path class="h" d="M814.56,985.738l-5.286-11.221a65.317,65.317,0,0,0,5.054-5.159c3.22-3.7,5.032-6.808,5.4-9.248a12.073,12.073,0,0,1,4.442,3.806c.354.558.394,2.369-.551,5.777a47.508,47.508,0,0,1-4.047,9.8C817.877,982.534,816.12,984.717,814.56,985.738Z" transform="translate(-808.564 -959.214)"/><path d="M818.14,958.489a14.236,14.236,0,0,1-1.582,3.623,35.446,35.446,0,0,1-3.785,5.11,65.11,65.11,0,0,1-4.783,4.917l4.8,10.2a19.926,19.926,0,0,0,4.274-5.637,46.9,46.9,0,0,0,3.995-9.677,21.086,21.086,0,0,0,.728-3.659,3.183,3.183,0,0,0-.106-1.651,10.762,10.762,0,0,0-3.543-3.223m-.92-1.791a13.346,13.346,0,0,1,5.446,4.391c1.828,2.883-4.538,20.042-10.356,22.951l-5.74-12.185s10.649-9.338,10.649-15.157Z" transform="translate(-806.57 -956.698)"/></g><g transform="translate(0 15.158)"><path class="h" d="M802.827,1028.94l1.276-7.712,2.389,4.455Z" transform="translate(-801.984 -1019.446)"/><path d="M802.032,1018l-.729,4.4,2.092-1.86L802.032,1018m-.59-3.563,3.413,6.367-5.237,4.655Z" transform="translate(-799.618 -1014.441)"/></g></g><g transform="translate(166.905 108.07)"><g transform="translate(0 63.311)"><path class="g" d="M736.448,910.758v-7.273h27.929v12.877S747.794,919.2,736.448,910.758Z" transform="translate(-710.024 -837.736)"/><path class="b" d="M712.021,682.494a6.981,6.981,0,0,0-6.272,1.513c-2.184-17.539-14.59-30.978-29.568-30.978-14.867,0-27.194,13.242-29.513,30.589a6.813,6.813,0,0,0-5.745-1.121c-4.048,1.155-6.132,6.287-4.655,11.462s5.955,8.437,10,7.281a6.025,6.025,0,0,0,1.41-.606c3.847,14.74,15.151,25.417,28.5,25.417,13.45,0,24.825-10.838,28.588-25.75a6.084,6.084,0,0,0,1.9.938c4.047,1.155,8.526-2.105,10-7.281S716.069,683.648,712.021,682.494Z" transform="translate(-635.793 -653.028)"/><ellipse class="d" cx="3.2" cy="6.691" rx="3.2" ry="6.691" transform="translate(49.032 26.941)"/><ellipse class="d" cx="3.2" cy="6.691" rx="3.2" ry="6.691" transform="translate(25.26 27.055)"/><path class="d" d="M784.754,793.176a.873.873,0,0,1-.391-1.654l2.909-1.453-2.213-12.387a.873.873,0,1,1,1.718-.307l2.441,13.671-4.073,2.037A.874.874,0,0,1,784.754,793.176Z" transform="translate(-745.005 -744.202)"/><path class="d" d="M734.848,740.152a.865.865,0,0,1-.435-.117c-2.205-1.272-6.461-.375-7.915.079a.873.873,0,1,1-.52-1.666c.243-.076,5.99-1.838,9.308.077a.873.873,0,0,1-.437,1.629Z" transform="translate(-701.85 -715.424)"/><path class="d" d="M816.857,740.152a.868.868,0,0,1-.435-.117c-2.205-1.272-6.462-.375-7.915.079a.873.873,0,1,1-.52-1.666c.243-.076,5.99-1.838,9.308.077a.873.873,0,0,1-.437,1.629Z" transform="translate(-762.331 -715.424)"/><path class="g" d="M775.8,866.672a.582.582,0,0,1-.118-1.152l11.843-2.472a.582.582,0,1,1,.238,1.139l-11.844,2.472A.615.615,0,0,1,775.8,866.672Z" transform="translate(-738.617 -807.905)"/></g><path class="e" d="M670.977,505.458s11.055-11.637,11.055-20.947c0,0,24.258,4.515,30.167.8,0,0,8.236,18.98,16.964,21.89,0,0,13.076-26.737-8.146-47.712-11.2-11.067-18.781-6.966-24.438-11.637-7.224-5.965,17.293-25.535,5.237-34.912-5.237-4.073-47.131.582-29.9,62.222C671.915,475.164,665.74,491.493,670.977,505.458Z" transform="translate(-659.385 -411.855)"/><path class="j" d="M715.413,655.378" transform="translate(-694.512 -591.45)"/><path class="h" d="M719.954,529.174a.58.58,0,0,1-.336-.107c-18.173-12.9-10.768-37.065-10.692-37.308a.582.582,0,0,1,1.11.352c-.074.235-7.219,23.606,10.255,36.007a.582.582,0,0,1-.337,1.056Z" transform="translate(-688.579 -470.483)"/><path class="h" d="M692.159,580.045a.58.58,0,0,1-.3-.083c-3.72-2.231-6.27-6.94-7.374-13.615a46.2,46.2,0,0,1-.561-9.415.582.582,0,1,1,1.162.072c-.011.169-.949,16.967,7.373,21.96a.582.582,0,0,1-.3,1.081Z" transform="translate(-671.258 -518.445)"/></g><path class="k" d="M0,570.839H258.412c120.924,0,197.949-72.886,197.949-170.619,0-75.37-50.523-115.954-89.451-130.86,38.926-17.393,72.886-58.805,72.886-123.408C439.8,71.409,387.617.18,249.3.18H0ZM120.923,225.46V95.425H239.362c47.21,0,78.683,21.535,78.683,62.947,0,40.585-24.02,67.088-82.823,67.088Zm0,95.251H231.911c67.917,0,97.734,28.989,97.734,75.371,0,51.351-29.816,79.511-96.9,79.511H120.923Z" transform="translate(0 -0.18)"/><g transform="translate(160.459 384.378)"><circle class="b" cx="9.892" cy="9.892" r="9.892"/><path class="b" d="M625.834,1502.079l6.06,96.589h27.584l-2.294-96.589Z" transform="translate(-622.002 -1492.187)"/><g transform="translate(48.294)"><circle class="b" cx="9.892" cy="9.892" r="9.892"/><path class="b" d="M809.8,1502.079l6.06,96.589h27.584l-2.294-96.589Z" transform="translate(-805.969 -1492.187)"/></g></g><path class="h" d="M49.769,1832.794v4.946H62.756c-3.731,4.774-8.674,14.493-9.763,22.62h6.158c1.089-8,5.362-16.925,9.717-23.125v-4.441Zm41.556,27.566.757-4.985H79.008c.461-1.257,1.843-2.851,5.237-5.237,5.069-3.561,6.829-5.488,6.829-9.51,0-4.106-2.43-8.337-9.51-8.337-6.368,0-9.468,3.98-9.844,8.714H77.5c.377-2.386,1.339-4.064,4.064-4.064,2.3,0,3.477,1.339,3.477,3.728,0,2.43-1.173,3.393-5.069,6.242-5.991,4.358-8.127,8.253-8.127,13.071v.377Zm20.819-30.583h-6.03v30.583h6.03v-6.954l2.765-2.681,5.49,9.634h6.787l-8.253-13.49,7.541-8.214H119.6c-3.016,3.645-5.865,7-7.457,9.175Zm36.7,15.124c0-2.095.042-4.273.042-6.242H143.23c-.042.377-.21,1.676-.251,2.262-.335-1.005-1.885-2.765-5.614-2.765-5.4,0-9.468,4.65-9.468,11.437,0,5.823,3.268,10.516,8.965,10.516,3.184,0,4.985-1.173,6.117-3.059v1.048c0,4.231-.757,6.619-4.65,6.619-2.3,0-3.394-1.005-3.812-2.514H128.4c.21,2.472,1.759,6.871,9.678,6.871,8.211,0,10.764-4.4,10.764-11.353Zm-14.786,4.441c0-4.358,2.053-6.368,4.65-6.368,3.812,0,4.441,2.514,4.441,6.158s-.963,6.116-4.566,6.116c-2.639,0-4.524-2.178-4.524-5.907Zm35.568-18.894,1.047,21.324h3.563l1.047-21.324Zm2.807,23.586a3.063,3.063,0,0,0-2.262.88,3.138,3.138,0,0,0,0,4.525,3.093,3.093,0,0,0,2.262.922,3.4,3.4,0,0,0,2.346-.88,3.193,3.193,0,0,0,.922-2.3,3.1,3.1,0,0,0-.922-2.263,3.33,3.33,0,0,0-2.346-.879Z" transform="translate(-36.704 -1349.482)"/><path class="h" d="M774.906,240.669V213.062h-4.273a12.706,12.706,0,0,1-6.825,3.728v4.48a18.462,18.462,0,0,0,4.985-1.215v20.615Zm15.291.5c6.284,0,10.809-2.933,10.809-8.63a7.209,7.209,0,0,0-4.48-6.7,5.47,5.47,0,0,0,3.518-5.527c0-4.776-3.728-7.709-9.426-7.709-6.2,0-9.594,3.1-9.594,7.792a6.214,6.214,0,0,0,3.393,5.739,7.324,7.324,0,0,0-4.524,6.619c0,5.445,4.649,8.419,10.3,8.419Zm.375-4.65c-2.807,0-4.65-1.634-4.65-4.106,0-2.3,1.549-3.938,4.524-3.938,2.681,0,4.568,1.257,4.568,3.98,0,2.807-1.882,4.063-4.442,4.063Zm-.081-19.313c2.471,0,3.854,1.3,3.854,3.394,0,2.179-1.339,3.1-3.77,3.1-2.556,0-3.9-1.257-3.9-3.1,0-2.178,1.3-3.393,3.815-3.393Zm24.676-4.608c-7.918,0-10.684,6.745-10.684,14.286,0,7.622,2.472,14.286,10.557,14.286,8.211,0,10.6-6.871,10.6-14.453,0-7.833-2.764-14.118-10.473-14.118Zm0,4.776c3.6,0,4.273,4.022,4.273,9.384,0,5.4-.5,9.634-4.315,9.634-3.9,0-4.48-4.524-4.48-9.594,0-5.947,1-9.424,4.522-9.424Zm38,16.3a3.7,3.7,0,0,1-3.728,2.851c-2.6,0-4.273-2.095-4.273-6.745,0-4.189,1.55-6.575,4.315-6.575a3.39,3.39,0,0,1,3.728,2.975h5.823c-.084-2.43-2.137-7.708-9.426-7.708-6.619,0-10.516,5.111-10.516,11.521,0,6.537,3.477,11.186,10.222,11.186,6.452,0,9.007-3.9,9.717-7.5Zm9.677,7h5.949V228.563c0-3.728,1.173-5.237,3.6-5.237,2.555,0,3.1,1.843,3.1,4.064v13.28H881.4v-12.4c0-3.31,1.005-4.985,3.518-4.985,2.472,0,3.184,1.927,3.184,3.9v13.487h5.865V226.425c0-5.614-3.1-7.96-6.87-7.96a7.6,7.6,0,0,0-6.7,3.309,5.724,5.724,0,0,0-5.572-3.309,6.817,6.817,0,0,0-6.033,3.1c-.042-.838-.168-2.053-.252-2.6H862.8c.042,1.885.042,3.728.042,5.614Zm51.948-29.911,1.047,21.324H919.4l1.047-21.324Zm2.807,23.586a3.062,3.062,0,0,0-2.26.88,3.137,3.137,0,0,0,0,4.524,3.092,3.092,0,0,0,2.262.922,3.4,3.4,0,0,0,2.346-.88,3.19,3.19,0,0,0,.922-2.3,3.093,3.093,0,0,0-.922-2.262,3.33,3.33,0,0,0-2.346-.88Z" transform="translate(-563.298 -155.478)"/><g transform="translate(142.768 490.859)"><path class="h" d="M548.508,1924.149h44.18a4.445,4.445,0,0,0,4.444-4.344l.719-31.616H572.595l-.475,13.679c-.148,4.248-1.713,5.709-5.761,7.012a27.856,27.856,0,0,1-9.991.989c-6.311-.339-11.705,2.644-12.312,6.167C543.351,1920.142,544.344,1924.149,548.508,1924.149Z" transform="translate(-543.848 -1883.419)"/><path class="l" d="M596.38,1888.192l-.653,28.707a4.445,4.445,0,0,1-4.444,4.343H547.1a4.861,4.861,0,0,1-2-.392,4.2,4.2,0,0,0,4.331,3.3h44.18a4.445,4.445,0,0,0,4.444-4.344l.719-31.616Z" transform="translate(-544.771 -1883.421)"/><path class="h" d="M637.185,1898.831h27.348a3.782,3.782,0,0,1,3.782,3.782h0a3.782,3.782,0,0,1-3.782,3.782H637.185a3.782,3.782,0,0,1-3.782-3.782h0a3.782,3.782,0,0,1,3.782-3.782Z" transform="translate(-609.894 -1891.267)"/><path class="h" d="M637.185,1870.017h27.348a3.782,3.782,0,0,1,3.782,3.782h0a3.782,3.782,0,0,1-3.782,3.782H637.185a3.782,3.782,0,0,1-3.782-3.782h0a3.782,3.782,0,0,1,3.782-3.782Z" transform="translate(-609.894 -1870.017)"/><path class="l" d="M633.459,1885.532a3.782,3.782,0,0,0,3.767,3.491h27.348a3.782,3.782,0,0,0,3.767-3.492Z" transform="translate(-609.935 -1881.459)"/><path class="l" d="M633.459,1914.347a3.782,3.782,0,0,0,3.767,3.492h27.348a3.781,3.781,0,0,0,3.767-3.491Z" transform="translate(-609.935 -1902.709)"/></g><g transform="translate(191.644 490.859)"><path class="h" d="M734.694,1924.149h44.179a4.445,4.445,0,0,0,4.444-4.344l.719-31.616H758.78l-.475,13.679c-.148,4.248-1.713,5.709-5.76,7.012a27.856,27.856,0,0,1-9.991.989c-6.312-.339-11.706,2.644-12.312,6.167C729.537,1920.142,730.53,1924.149,734.694,1924.149Z" transform="translate(-730.034 -1883.419)"/><path class="l" d="M782.566,1888.192l-.653,28.707a4.445,4.445,0,0,1-4.444,4.343H733.291a4.857,4.857,0,0,1-2-.392,4.2,4.2,0,0,0,4.331,3.3H779.8a4.445,4.445,0,0,0,4.444-4.343l.719-31.616Z" transform="translate(-730.957 -1883.421)"/><path class="h" d="M823.375,1898.831h27.346a3.782,3.782,0,0,1,3.782,3.782h0a3.782,3.782,0,0,1-3.782,3.782H823.375a3.782,3.782,0,0,1-3.782-3.782h0A3.782,3.782,0,0,1,823.375,1898.831Z" transform="translate(-796.082 -1891.267)"/><path class="h" d="M823.375,1870.017h27.346a3.782,3.782,0,0,1,3.782,3.782h0a3.782,3.782,0,0,1-3.782,3.782H823.375a3.782,3.782,0,0,1-3.782-3.782h0A3.782,3.782,0,0,1,823.375,1870.017Z" transform="translate(-796.082 -1870.017)"/><path class="l" d="M819.644,1885.532a3.782,3.782,0,0,0,3.768,3.491h27.347a3.783,3.783,0,0,0,3.768-3.492Z" transform="translate(-796.12 -1881.459)"/><path class="l" d="M819.644,1914.347a3.782,3.782,0,0,0,3.768,3.492h27.347a3.782,3.782,0,0,0,3.768-3.492Z" transform="translate(-796.12 -1902.709)"/></g><g transform="translate(123.936 531.534)"><rect class="d" width="134.992" height="19.783" rx="8.866" transform="translate(1.746 7.564)"/><rect class="m" width="138.483" height="19.783" rx="8.866"/><rect class="d" width="138.483" height="2.327" transform="translate(0 5.237)"/></g><path class="h" d="M479.8,390.409h-1.164a1.164,1.164,0,1,1,0-2.327H479.8a1.164,1.164,0,1,1,0,2.327Zm-11.637,0H463.5a1.164,1.164,0,1,1,0-2.327h4.655a1.164,1.164,0,1,1,0,2.327Zm-15.128,0h-4.655a1.164,1.164,0,1,1,0-2.327h4.655a1.164,1.164,0,1,1,0,2.327Zm-15.128,0h-4.655a1.164,1.164,0,0,1,0-2.327H437.9a1.164,1.164,0,1,1,0,2.327Zm-15.128,0H418.12a1.164,1.164,0,1,1,0-2.327h4.655a1.164,1.164,0,1,1,0,2.327Zm-15.128,0H402.99a1.164,1.164,0,0,1,0-2.327h4.655a1.164,1.164,0,1,1,0,2.327Zm-15.128,0h-4.655a1.164,1.164,0,0,1,0-2.327h4.655a1.164,1.164,0,1,1,0,2.327Zm-15.128,0h-4.655a1.164,1.164,0,0,1,0-2.327h4.655a1.164,1.164,0,1,1,0,2.327Zm-15.128,0h-4.655a1.164,1.164,0,0,1,0-2.327h4.655a1.164,1.164,0,0,1,0,2.327Zm-15.128,0h-4.655a1.164,1.164,0,1,1,0-2.327h4.655a1.164,1.164,0,0,1,0,2.327Zm-15.128,0h-4.655a1.164,1.164,0,1,1,0-2.327H332a1.164,1.164,0,1,1,0,2.327Zm-15.128,0H312.22a1.164,1.164,0,0,1,0-2.327h4.655a1.164,1.164,0,1,1,0,2.327Zm-15.128,0h-4.655a1.164,1.164,0,1,1,0-2.327h4.655a1.164,1.164,0,1,1,0,2.327Zm-15.128,0h-4.655a1.164,1.164,0,1,1,0-2.327h4.655a1.164,1.164,0,0,1,0,2.327Zm-15.128,0h-4.655a1.164,1.164,0,1,1,0-2.327h4.655a1.164,1.164,0,0,1,0,2.327Zm-15.128,0h-4.655a1.164,1.164,0,1,1,0-2.327h4.655a1.164,1.164,0,1,1,0,2.327Zm-15.128,0h-4.655a1.164,1.164,0,1,1,0-2.327h4.655a1.164,1.164,0,1,1,0,2.327Zm-15.128,0H221.45a1.164,1.164,0,1,1,0-2.327H226.1a1.164,1.164,0,1,1,0,2.327Zm-15.128,0h-4.655a1.164,1.164,0,1,1,0-2.327h4.655a1.164,1.164,0,1,1,0,2.327Zm-15.128,0h-4.655a1.164,1.164,0,1,1,0-2.327h4.656a1.164,1.164,0,1,1,0,2.327Zm-15.128,0h-4.655a1.164,1.164,0,1,1,0-2.327h4.655a1.164,1.164,0,1,1,0,2.327Zm-15.128,0h-4.655a1.164,1.164,0,1,1,0-2.327h4.655a1.164,1.164,0,1,1,0,2.327Zm-15.128,0h-4.655a1.164,1.164,0,1,1,0-2.327h4.655a1.164,1.164,0,1,1,0,2.327Z" transform="translate(-106.673 -286.252)"/><path class="h" d="M356.609,2026.513a1.157,1.157,0,0,1-.278-.034L327.82,2019.5a1.164,1.164,0,1,1,.553-2.26l28.511,6.983a1.164,1.164,0,0,1-.276,2.294Z" transform="translate(-241.108 -1487.705)"/><path class="h" d="M565.263,1871.195a1.151,1.151,0,0,1-.152-.01,1.164,1.164,0,0,1-1-1.3l3.491-26.765a1.164,1.164,0,1,1,2.308.3l-3.491,26.766a1.164,1.164,0,0,1-1.152,1.013Z" transform="translate(-416.014 -1358.571)"/></g><path class="n" d="M15.36.017H49.443V-69.35c0-21.362,6.72-30,20.642-30,14.641,0,17.762,10.561,17.762,23.282V.017H121.69V-71.03c0-18.962,5.761-28.562,20.161-28.562,14.161,0,18.242,11.041,18.242,22.322V.017h33.6V-81.591c0-32.163-17.762-45.6-39.364-45.6-20.4,0-30.963,8.881-38.4,18.962-4.321-9.6-14.162-18.962-31.923-18.962-18.242,0-28.323,8.641-34.563,17.762-.24-4.8-.96-11.761-1.44-14.881H15.12c.24,10.8.24,21.362.24,32.163Zm209.06,0h34.564V-124.315H224.421Zm34.564-144.494V-175.2H224.421v30.723Z" transform="translate(473.948 570.697)"/></g></svg>