<svg xmlns="http://www.w3.org/2000/svg" xmlns:xlink="http://www.w3.org/1999/xlink" width="319" height="249" viewBox="0 0 319 249"><defs><style>.a{clip-path:url(#a);}.b{fill:#ffdbda;}.c{fill:#ffc1ba;}.d{fill:#09ad51;}.e{fill:#35bf79;}.f{fill:#e9e9e8;}.g{fill:#1d1d1d;}.h,.i{fill:#fff;}.i,.j{stroke:#000;stroke-miterlimit:10;stroke-width:2px;}.j{fill:#d2982b;}.k{fill:#31714d;}.l{fill:#f2f2f2;}.m{fill:#a2e149;}.n{fill:#387c57;}</style><clipPath id="a"><rect width="319" height="249" transform="translate(0 -0.286)"/></clipPath></defs><g class="a" transform="translate(0 0.286)"><g transform="translate(0 -0.157)"><g transform="translate(96.244 44.882)"><g transform="translate(0 0)"><path class="b" d="M906.811,399.818h4.361a4.8,4.8,0,0,1,4.281,1.165c1.226,1.226,1.539,3.615,2.37,4.623a11.756,11.756,0,0,0,1.413,1.441l3.4,2.912-3.291,4.189s-1.108-2.423-4.787-2.094c-3.311.3-6.285-.9-7.181-2.693s-1.5-1.2-3.291-2.094l2.693-2.094c.694-.694.9-2.693.3-2.992Z" transform="translate(-896.902 -398.888)"/><g transform="translate(0 0.93)"><rect class="b" width="16.181" height="2.362" rx="1.181"/><path class="c" d="M841.31,410.823c0,.005,0,.01,0,.016a1.181,1.181,0,0,0,1.181,1.181h13.819a1.181,1.181,0,0,0,1.181-1.181h0c0-.005,0-.01,0-.016Z" transform="translate(-841.308 -409.658)"/><path class="c" d="M921.219,412.151s1.327-.529,1.264,1.381,1.3-2.561,1.3-2.561h-2.713Z" transform="translate(-911.948 -409.789)"/></g><rect class="b" width="2.948" height="8.031" rx="1.474" transform="matrix(0.251, -0.968, 0.968, 0.251, 2.618, 7.427)"/><rect class="c" width="2.062" height="4.612" rx="1.031" transform="translate(10.048 5.703) rotate(-30.001)"/><g transform="translate(9.765 0)"><rect class="b" width="2.362" height="5.028" rx="1.181" transform="translate(0.299 5.37) rotate(-30)"/><rect class="b" width="6.583" height="2.362" rx="1.181" transform="translate(0 5.701) rotate(-60)"/></g><g transform="translate(11.261 0.591)"><rect class="c" width="2.362" height="5.028" rx="1.181" transform="translate(0.299 4.779) rotate(-30)"/><rect class="c" width="5.9" height="2.362" rx="1.181" transform="translate(0 5.11) rotate(-60)"/></g><g transform="translate(11.86)"><rect class="b" width="2.362" height="5.028" rx="1.181" transform="translate(0.299 5.37) rotate(-30)"/><rect class="b" width="6.583" height="2.362" rx="1.181" transform="translate(0 5.701) rotate(-59.999)"/></g><g transform="translate(14.394 1.497)"><rect class="c" width="2.062" height="5.984" rx="1.031" transform="translate(0 3.736) rotate(-25.733)"/><path class="c" d="M971.942,410.529h0a1.032,1.032,0,0,0,1.38-.472l1.055-2.151c.251-.511.276-2.058-.236-2.307l-.236.929a1.031,1.031,0,0,0-1.38.472l-1.055,2.151A1.031,1.031,0,0,0,971.942,410.529Z" transform="translate(-970.881 -405.599)"/></g><g transform="translate(13.169 0.689)"><rect class="c" width="2.062" height="5.984" rx="1.031" transform="translate(0.029 3.945) rotate(-25.733)"/><rect class="c" width="5.264" height="2.062" rx="1.031" transform="matrix(0.525, -0.851, 0.851, 0.525, 0, 4.48)"/></g><g transform="translate(13.796 0.6)"><rect class="b" width="2.062" height="5.984" rx="1.031" transform="translate(0 4.633) rotate(-25.733)"/><rect class="b" width="5.984" height="2.062" rx="1.031" transform="matrix(0.44, -0.898, 0.898, 0.44, 0.136, 5.374)"/></g><path class="c" d="M897.124,465.98" transform="translate(-890.739 -457.576)"/><path class="c" d="M897.124,465.178s3.035.541,4.158,2.2a4.044,4.044,0,0,0,2.314,1.872s-2.086-2.007-2.385-3.5S899.32,465.8,897.124,465.178Z" transform="translate(-890.739 -456.773)"/><path class="c" d="M988.625,500.876s2.089-1.414,3.539-.728,2.974,1.6,2.974,1.6l-.776,2.38s-.623-2.523-2.48-3.06Z" transform="translate(-971.772 -487.669)"/></g><g transform="translate(7.435 10.679)"><circle class="d" cx="6.583" cy="6.583" r="6.583" transform="translate(30.266 16.55)"/><path class="d" d="M1029.2,490.867l4.133-4.755a.733.733,0,0,1,1.021-.083l22.181,18.365-8.322,10.1-19.021-22.674A.733.733,0,0,1,1029.2,490.867Z" transform="translate(-1014.984 -485.86)"/><path class="d" d="M906.3,718.965l30.8-24.46,12.631-2.1L931.78,719.434Z" transform="translate(-906.3 -668.772)"/><path class="d" d="M1154.736,678.342s1.832-1.474-.459-4.466l2.586-1.5,2.3,5.087Z" transform="translate(-1125.909 -651.043)"/></g></g><g transform="translate(54 134.886)"><g transform="translate(1.64 28.99)"><path class="b" d="M497.6,1450.377c-.974-.228-2.951.445-2.889,1.124l-1.772,1.718-2.34-3.781a4.894,4.894,0,0,1-1.287-4.336c.406-1.721,2.307-3.274,2.736-4.536a11.93,11.93,0,0,0,.492-2l-.492-5.869,6.593,1.965s-1.506,2.261.753,5.274c2.034,2.713,2.592,5.933,1.519,7.672,0,0-.552,3.368-1.24,3.935S497.6,1450.377,497.6,1450.377Z" transform="translate(-488.871 -1432.699)"/><g transform="translate(1.657 13.755)"><rect class="b" width="16.503" height="2.409" rx="1.204" transform="translate(0 16.5) rotate(-88.912)"/><path class="c" d="M511.232,1569.633l.016,0a1.2,1.2,0,0,0,1.227-1.181h0l.269-14.089a1.2,1.2,0,0,0-1.18-1.227h-.017Z" transform="translate(-510.046 -1553.115)"/><path class="c" d="M514.135,1590.206a18.2,18.2,0,0,1,2.2-2.653c1.22-1.22-3.357.013-3.357.013l-.053,2.767Z" transform="translate(-511.548 -1583.116)"/></g><rect class="b" width="3.006" height="8.189" rx="1.503" transform="matrix(0.968, -0.251, 0.251, 0.968, 6.344, 12.032)"/><path class="c" d="M551.936,1537.075s1.052-.118,1.22.444,2.3,5.138,2.3,5.138.61-1.83,1.425-4.62a4.481,4.481,0,0,0,.055-2.064s-.4,1.881-3.075,1.384C553.866,1537.358,552.683,1536.681,551.936,1537.075Z" transform="translate(-544.437 -1524.159)"/><rect class="c" width="4.703" height="2.103" rx="1.052" transform="translate(6.277 16.844) rotate(-61.769)"/><g transform="translate(1.496 12.347)"><rect class="b" width="5.127" height="2.408" rx="1.204" transform="translate(4.214 4.517) rotate(-61.769)"/><rect class="b" width="6.713" height="2.408" rx="1.204" transform="matrix(1, -0.031, 0.031, 1, 0, 3.537)"/></g><g transform="translate(1.388 11.05)"><rect class="c" width="5.127" height="2.408" rx="1.204" transform="translate(3.519 4.517) rotate(-61.769)"/><rect class="c" width="6.019" height="2.409" rx="1.205" transform="matrix(1, -0.031, 0.031, 1, 0, 3.514)"/></g><g transform="translate(0.371 10.531)"><rect class="b" width="5.127" height="2.408" rx="1.204" transform="translate(4.215 4.517) rotate(-61.769)"/><rect class="b" width="6.716" height="2.409" rx="1.205" transform="matrix(1, -0.031, 0.031, 1, 0, 3.536)"/></g><g transform="translate(0.398 8.052)"><rect class="c" width="6.099" height="2.102" rx="1.051" transform="matrix(0.537, -0.843, 0.843, 0.537, 3.218, 5.142)"/><path class="c" d="M495.32,1536.924h0a1.051,1.051,0,0,0-1.149-.944h0l-2.431.239c-.578.057-1.932.865-1.876,1.443l.932-.293a1.052,1.052,0,0,0,1.15.944l2.431-.24a1.052,1.052,0,0,0,.945-1.149Z" transform="translate(-489.862 -1532.212)"/></g><g transform="translate(0.62 9.411)"><rect class="c" width="6.099" height="2.102" rx="1.051" transform="matrix(0.537, -0.843, 0.843, 0.537, 3.119, 5.142)"/><rect class="c" width="5.369" height="2.103" rx="1.052" transform="translate(0 3.914) rotate(-0.057)"/></g><g transform="translate(0 8.565)"><rect class="b" width="6.102" height="2.103" rx="1.052" transform="translate(3.937 5.146) rotate(-57.487)"/><rect class="b" width="6.101" height="2.103" rx="1.051" transform="translate(0 4.269) rotate(-5.625)"/></g><path class="c" d="M595.1,1603.731" transform="translate(-582.663 -1584.165)"/><path class="c" d="M561.214,1454.5s-2.347-1.052-2.531-2.678-.206-3.439-.206-3.439l1.517.17a3.476,3.476,0,0,0-.359,3.017Z" transform="translate(-550.229 -1446.585)"/></g><path class="d" d="M484.418,1210.424l-7.968.447a.889.889,0,0,1-.989-.676l-3.421-29.236,13.238-1.678v30.461A.859.859,0,0,1,484.418,1210.424Z" transform="translate(-472.041 -1179.282)"/></g><g transform="translate(69.683 127.033)"><g transform="translate(0.241 12.481)"><circle class="b" cx="4.311" cy="4.311" r="4.311" transform="translate(0 27.989)"/><path class="b" d="M640.59,1219.73l-4.323,32.3H622.723l-.4-32.3Z" transform="translate(-621.053 -1219.73)"/><path class="b" d="M625.834,1502.079l2.641,42.091H640.5l-1-42.091Z" transform="translate(-624.164 -1469.779)"/></g><g transform="translate(21.287 12.481)"><circle class="b" cx="4.311" cy="4.311" r="4.311" transform="translate(0 27.989)"/><path class="b" d="M824.559,1219.73l-4.322,32.3H806.692l-.4-32.3Z" transform="translate(-805.022 -1219.73)"/><path class="b" d="M809.8,1502.079l2.641,42.091h12.021l-1-42.091Z" transform="translate(-808.13 -1469.779)"/></g><rect class="e" width="41.077" height="28.906" transform="translate(0.254 0.253)"/><g transform="translate(0 0)"><path class="f" d="M612.106,1124.508h-.761v-11.663h12.424a11.664,11.664,0,0,1-11.663,11.663Z" transform="translate(-611.091 -1112.591)"/><path class="g" d="M610.142,1122.8h-1.014v-12.171H622.06v.253A11.931,11.931,0,0,1,610.142,1122.8Zm-.507-.507h.507a11.424,11.424,0,0,0,11.408-11.157H609.635Z" transform="translate(-609.128 -1110.629)"/></g><g transform="translate(28.652 0)"><path class="f" d="M861.808,1112.842h12.425v11.663h-.761a11.664,11.664,0,0,1-11.664-11.664Z" transform="translate(-861.555 -1112.589)"/><path class="g" d="M872.523,1122.8h-1.014a11.931,11.931,0,0,1-11.917-11.917v-.253h12.932ZM860.1,1111.136a11.424,11.424,0,0,0,11.408,11.157h.507v-11.157Z" transform="translate(-859.592 -1110.629)"/></g><g transform="translate(20.665 13.058)"><path class="h" d="M791.9,1241.86h-1.014v-15.974H791.9Z" transform="translate(-790.754 -1225.759)"/><path class="h" d="M791.041,1241.006h-1.268v-16.228h1.268Zm-1.014-.254h.761v-15.721h-.761Z" transform="translate(-789.773 -1224.778)"/></g><g transform="translate(17.496)"><path class="h" d="M768.34,1126.791h0a4.057,4.057,0,0,1-4.057-4.057v-9.889h4.057Z" transform="translate(-764.029 -1112.591)"/><path class="h" d="M766.63,1125.082h-.254a4.315,4.315,0,0,1-4.311-4.311v-10.142h4.565Zm-4.057-13.946v9.635a3.809,3.809,0,0,0,3.55,3.8v-13.43Z" transform="translate(-762.066 -1110.629)"/></g><path class="h" d="M623.87,1229.5a.253.253,0,0,1-.253-.254v-.76a.254.254,0,1,1,.507,0v.76A.253.253,0,0,1,623.87,1229.5Zm0-2.282a.253.253,0,0,1-.253-.254v-.761a.254.254,0,1,1,.507,0v.761A.254.254,0,0,1,623.87,1227.219Zm0-2.282a.253.253,0,0,1-.253-.254v-.761a.254.254,0,0,1,.507,0v.761a.253.253,0,0,1-.254.254Zm0-2.282a.253.253,0,0,1-.253-.254v-.761a.254.254,0,1,1,.507,0v.761A.254.254,0,0,1,623.87,1222.655Zm0-2.282a.253.253,0,0,1-.253-.254v-.761a.254.254,0,0,1,.507,0v.761A.254.254,0,0,1,623.87,1220.373Zm0-2.282a.254.254,0,0,1-.253-.254v-.761a.254.254,0,0,1,.507,0v.761A.254.254,0,0,1,623.87,1218.091Zm0-2.282a.253.253,0,0,1-.253-.253v-.761a.254.254,0,1,1,.507,0v.761A.253.253,0,0,1,623.87,1215.808Zm0-2.282a.253.253,0,0,1-.253-.254v-.761a.254.254,0,1,1,.507,0v.761A.254.254,0,0,1,623.87,1213.526Z" transform="translate(-621.959 -1200.632)"/><path class="h" d="M954.128,1229.5a.254.254,0,0,1-.254-.254v-.76a.254.254,0,1,1,.507,0v.76a.253.253,0,0,1-.254.254Zm0-2.282a.254.254,0,0,1-.254-.254v-.761a.254.254,0,0,1,.507,0v.761A.254.254,0,0,1,954.128,1227.219Zm0-2.282a.254.254,0,0,1-.254-.254v-.761a.254.254,0,0,1,.507,0v.761A.253.253,0,0,1,954.128,1224.937Zm0-2.282a.254.254,0,0,1-.254-.254v-.761a.254.254,0,0,1,.507,0v.761A.254.254,0,0,1,954.128,1222.655Zm0-2.282a.254.254,0,0,1-.254-.254v-.761a.254.254,0,0,1,.507,0v.761A.254.254,0,0,1,954.128,1220.373Zm0-2.282a.254.254,0,0,1-.254-.254v-.761a.254.254,0,0,1,.507,0v.761a.253.253,0,0,1-.254.254Zm0-2.282a.253.253,0,0,1-.254-.253v-.761a.254.254,0,1,1,.507,0v.761A.253.253,0,0,1,954.128,1215.808Zm0-2.282a.254.254,0,0,1-.254-.254v-.761a.254.254,0,0,1,.507,0v.761A.254.254,0,0,1,954.128,1213.526Z" transform="translate(-914.436 -1200.632)"/></g><path class="i" d="M713.637,943.328c1.521-.046,7.917,0,9.185,4.565,0,0-6.937-2.143-18.51-.254C704.313,947.639,705.213,943.582,713.637,943.328Z" transform="translate(-623.741 -835.428)"/><g transform="translate(80.536 109.424)"><path class="h" d="M710.675,971.082c-1.026-.331-2.209-1.843-3.2-4.116a17.522,17.522,0,0,1-1.084-3.286,3.327,3.327,0,0,1-.067-1.914,5.245,5.245,0,0,1,1.936-1.659,8.995,8.995,0,0,0,2.353,4.03,28.433,28.433,0,0,0,2.2,2.249Z" transform="translate(-705.966 -959.717)"/><path d="M706.113,957.48a4.694,4.694,0,0,0-1.544,1.4,1.112,1.112,0,0,0-.061.524,6.91,6.91,0,0,0,.164,1.211,17.549,17.549,0,0,0,1.074,3.246,13.022,13.022,0,0,0,1.568,2.735,3.931,3.931,0,0,0,1.265,1.138l1.961-4.307a28.355,28.355,0,0,1-2.088-2.146,15.443,15.443,0,0,1-1.65-2.227,6.2,6.2,0,0,1-.689-1.579m.4-.78c0,2.536,4.641,6.605,4.641,6.605l-2.3,5.056c-2.789-.507-5.509-8.492-4.712-9.748a5.821,5.821,0,0,1,2.373-1.914Z" transform="translate(-704 -956.7)"/><g transform="translate(5.613 6.605)"><path class="h" d="M756.687,1026.812l-.968-1.129.981-1.926Z" transform="translate(-755.416 -1022.691)"/><path d="M754.1,1016.568l-.42.824.414.483.005-1.307m.516-2.131-.02,4.8-1.521-1.775Z" transform="translate(-753.07 -1014.436)"/></g></g><g transform="translate(91.474 109.423)"><g transform="translate(0.795)"><path class="h" d="M811.578,971.278l-2.3-4.89a28.444,28.444,0,0,0,2.2-2.248,8.986,8.986,0,0,0,2.352-4.03,5.261,5.261,0,0,1,1.936,1.659c.154.243.172,1.032-.24,2.518a20.7,20.7,0,0,1-1.763,4.273A7.94,7.94,0,0,1,811.578,971.278Z" transform="translate(-808.965 -959.72)"/><path d="M811.612,957.479a6.2,6.2,0,0,1-.689,1.579,15.446,15.446,0,0,1-1.65,2.227,28.361,28.361,0,0,1-2.084,2.143l2.093,4.443a8.683,8.683,0,0,0,1.862-2.456,20.438,20.438,0,0,0,1.741-4.217,9.2,9.2,0,0,0,.317-1.595,1.387,1.387,0,0,0-.046-.719,4.69,4.69,0,0,0-1.544-1.4m-.4-.78a5.816,5.816,0,0,1,2.373,1.913c.8,1.256-1.977,8.734-4.513,10l-2.5-5.31s4.641-4.069,4.641-6.605Z" transform="translate(-806.57 -956.698)"/></g><g transform="translate(0 6.606)"><path class="h" d="M802.827,1024.589l.556-3.361,1.041,1.941Z" transform="translate(-802.46 -1020.452)"/><path d="M800.67,1015.994l-.318,1.919.912-.81-.594-1.108m-.257-1.553,1.487,2.774-2.282,2.028Z" transform="translate(-799.618 -1014.441)"/></g></g><g transform="translate(72.733 47.095)"><g transform="translate(0 27.59)"><path class="g" d="M736.448,906.654v-3.17h12.171V909.1S741.392,910.331,736.448,906.654Z" transform="translate(-724.933 -874.833)"/><path class="b" d="M669.011,665.868a3.042,3.042,0,0,0-2.733.659c-.952-7.643-6.358-13.5-12.885-13.5-6.479,0-11.85,5.771-12.861,13.33a2.969,2.969,0,0,0-2.5-.489c-1.764.5-2.672,2.74-2.029,5s2.6,3.677,4.359,3.173a2.627,2.627,0,0,0,.614-.264c1.677,6.423,6.6,11.076,12.42,11.076,5.861,0,10.818-4.723,12.458-11.221a2.651,2.651,0,0,0,.83.409c1.764.5,3.715-.917,4.359-3.173S670.775,666.372,669.011,665.868Z" transform="translate(-635.793 -653.028)"/><ellipse class="d" cx="1.395" cy="2.916" rx="1.395" ry="2.916" transform="translate(21.367 11.74)"/><ellipse class="d" cx="1.395" cy="2.916" rx="1.395" ry="2.916" transform="translate(11.008 11.79)"/><path class="d" d="M784.261,783.855a.38.38,0,0,1-.17-.721l1.267-.633-.964-5.4a.38.38,0,1,1,.749-.134l1.064,5.958-1.775.888A.381.381,0,0,1,784.261,783.855Z" transform="translate(-766.94 -762.513)"/><path class="d" d="M729.5,738.732a.376.376,0,0,1-.19-.051c-.961-.554-2.816-.164-3.449.034a.38.38,0,1,1-.227-.726c.106-.033,2.61-.8,4.056.033a.38.38,0,0,1-.19.71Z" transform="translate(-715.117 -727.956)"/><path class="d" d="M811.506,738.732a.379.379,0,0,1-.19-.051c-.961-.555-2.816-.164-3.449.034a.38.38,0,1,1-.227-.726c.106-.033,2.61-.8,4.056.033a.381.381,0,0,1-.191.71Z" transform="translate(-787.745 -727.956)"/><path class="g" d="M775.473,864.62a.254.254,0,0,1-.052-.5l5.161-1.077a.254.254,0,0,1,.1.5l-5.161,1.077A.27.27,0,0,1,775.473,864.62Z" transform="translate(-759.268 -839.011)"/></g><path class="e" d="M669.175,452.645s4.818-5.071,4.818-9.128c0,0,10.571,1.968,13.146.35,0,0,3.589,8.271,7.393,9.539,0,0,5.7-11.651-3.55-20.792-4.879-4.823-8.184-3.036-10.65-5.071-3.148-2.6,7.536-11.128,2.282-15.214-2.282-1.775-20.539.254-13.03,27.115C669.584,439.444,666.893,446.559,669.175,452.645Z" transform="translate(-664.124 -411.855)"/><path class="j" d="M715.413,655.378" transform="translate(-706.305 -627.52)"/><path class="h" d="M712.853,507.834a.253.253,0,0,1-.146-.047c-7.92-5.62-4.693-16.152-4.659-16.258a.254.254,0,1,1,.484.153c-.032.1-3.146,10.287,4.469,15.691a.254.254,0,0,1-.147.46Z" transform="translate(-699.181 -482.258)"/><path class="h" d="M687.489,566.7a.253.253,0,0,1-.13-.036c-1.621-.972-2.732-3.024-3.214-5.933a20.133,20.133,0,0,1-.245-4.1.254.254,0,0,1,.506.031c0,.074-.414,7.394,3.213,9.57a.254.254,0,0,1-.131.471Z" transform="translate(-678.381 -539.852)"/></g><path class="k" d="M0,248.86H112.61c52.7,0,86.262-31.762,86.262-74.352,0-32.845-22.017-50.53-38.981-57.026,16.963-7.58,31.762-25.626,31.762-53.778C191.653,31.22,168.915.18,108.639.18H0ZM52.7,98.352V41.686h51.613c20.573,0,34.288,9.384,34.288,27.431,0,17.686-10.467,29.236-36.092,29.236Zm0,41.508h48.366c29.6,0,42.59,12.633,42.59,32.845,0,22.378-12.993,34.649-42.229,34.649H52.7Z" transform="translate(0 -0.18)"/><g transform="translate(69.924 167.503)"><circle class="b" cx="4.311" cy="4.311" r="4.311"/><path class="b" d="M625.834,1502.079l2.641,42.091H640.5l-1-42.091Z" transform="translate(-624.164 -1497.768)"/><g transform="translate(21.046)"><circle class="b" cx="4.311" cy="4.311" r="4.311"/><path class="b" d="M809.8,1502.079l2.641,42.091h12.021l-1-42.091Z" transform="translate(-808.13 -1497.768)"/></g></g><path class="h" d="M49.769,1831.092v2.155h5.659a23.7,23.7,0,0,0-4.255,9.857h2.684a24.946,24.946,0,0,1,4.234-10.078v-1.935ZM67.878,1843.1l.33-2.172h-5.7c.2-.548.8-1.242,2.282-2.282,2.209-1.552,2.976-2.391,2.976-4.144,0-1.789-1.059-3.633-4.144-3.633a3.941,3.941,0,0,0-4.29,3.8h2.519c.164-1.04.583-1.771,1.771-1.771,1,0,1.515.583,1.515,1.624,0,1.059-.511,1.479-2.209,2.72-2.611,1.9-3.542,3.6-3.542,5.7v.164Zm9.072-13.327H74.323V1843.1h2.628v-3.031l1.2-1.168,2.393,4.2h2.958l-3.6-5.879,3.286-3.579H80.2c-1.314,1.588-2.556,3.049-3.25,4Zm15.993,6.591c0-.913.018-1.862.018-2.72H90.5c-.018.164-.092.73-.109.986-.146-.438-.822-1.205-2.446-1.205-2.355,0-4.126,2.026-4.126,4.984,0,2.537,1.424,4.582,3.907,4.582a2.8,2.8,0,0,0,2.665-1.333v.457c0,1.844-.33,2.885-2.026,2.885a1.492,1.492,0,0,1-1.661-1.1H84.035c.092,1.077.766,2.994,4.217,2.994,3.578,0,4.691-1.917,4.691-4.948ZM86.5,1838.3c0-1.9.894-2.775,2.026-2.775,1.661,0,1.935,1.1,1.935,2.684s-.42,2.665-1.99,2.665c-1.15,0-1.972-.949-1.972-2.574Zm15.5-8.234.456,9.292h1.552l.456-9.292Zm1.223,10.278a1.335,1.335,0,0,0-.986.383,1.367,1.367,0,0,0,0,1.972,1.349,1.349,0,0,0,.986.4,1.483,1.483,0,0,0,1.022-.383,1.391,1.391,0,0,0,.4-1,1.348,1.348,0,0,0-.4-.986,1.451,1.451,0,0,0-1.022-.383Z" transform="translate(-44.076 -1620.476)"/><path class="h" d="M768.644,223.793V211.762h-1.862a5.537,5.537,0,0,1-2.974,1.624v1.952a8.046,8.046,0,0,0,2.173-.529v8.983Zm6.664.219c2.739,0,4.71-1.278,4.71-3.761a3.141,3.141,0,0,0-1.952-2.921,2.384,2.384,0,0,0,1.533-2.409c0-2.081-1.624-3.359-4.108-3.359-2.7,0-4.181,1.351-4.181,3.4a2.708,2.708,0,0,0,1.479,2.5,3.192,3.192,0,0,0-1.972,2.885c0,2.373,2.026,3.669,4.49,3.669Zm.163-2.026a1.806,1.806,0,0,1-2.026-1.789c0-1,.675-1.716,1.972-1.716,1.168,0,1.99.548,1.99,1.734a1.7,1.7,0,0,1-1.936,1.771Zm-.036-8.416c1.077,0,1.68.566,1.68,1.479,0,.949-.583,1.351-1.643,1.351-1.114,0-1.7-.548-1.7-1.351,0-.949.567-1.479,1.662-1.479Zm10.753-2.008c-3.451,0-4.656,2.939-4.656,6.225,0,3.322,1.077,6.225,4.6,6.225,3.578,0,4.619-2.994,4.619-6.3,0-3.414-1.2-6.152-4.564-6.152Zm0,2.081c1.57,0,1.862,1.753,1.862,4.089,0,2.355-.219,4.2-1.88,4.2-1.7,0-1.952-1.972-1.952-4.181,0-2.592.437-4.107,1.97-4.107Zm16.557,7.1a1.61,1.61,0,0,1-1.624,1.242c-1.132,0-1.862-.913-1.862-2.939,0-1.826.676-2.865,1.88-2.865a1.477,1.477,0,0,1,1.624,1.3H805.3c-.036-1.059-.931-3.359-4.108-3.359-2.885,0-4.583,2.227-4.583,5.02,0,2.848,1.515,4.874,4.455,4.874a3.909,3.909,0,0,0,4.234-3.268Zm4.217,3.049h2.592v-5.276c0-1.624.511-2.282,1.57-2.282,1.114,0,1.351.8,1.351,1.771v5.787h2.575v-5.4c0-1.442.438-2.173,1.533-2.173,1.077,0,1.387.84,1.387,1.7v5.877h2.556v-6.207c0-2.446-1.351-3.469-2.994-3.469a3.314,3.314,0,0,0-2.921,1.442,2.494,2.494,0,0,0-2.428-1.442,2.971,2.971,0,0,0-2.629,1.351c-.018-.365-.073-.895-.11-1.132h-2.5c.018.822.018,1.624.018,2.446ZM829.6,210.758l.456,9.293h1.552l.456-9.293Zm1.223,10.278a1.334,1.334,0,0,0-.985.383,1.367,1.367,0,0,0,0,1.972,1.348,1.348,0,0,0,.986.4,1.483,1.483,0,0,0,1.022-.383,1.39,1.39,0,0,0,.4-1,1.348,1.348,0,0,0-.4-.986,1.451,1.451,0,0,0-1.022-.383Z" transform="translate(-676.43 -186.668)"/><g transform="translate(62.215 213.905)"><path class="h" d="M545.879,1903.86h19.253a1.937,1.937,0,0,0,1.936-1.893l.313-13.777H556.375l-.207,5.961c-.064,1.851-.746,2.488-2.51,3.055a12.137,12.137,0,0,1-4.354.431c-2.75-.148-5.1,1.152-5.365,2.688C543.632,1902.114,544.064,1903.86,545.879,1903.86Z" transform="translate(-543.848 -1886.111)"/><path class="l" d="M567.447,1888.192l-.285,12.51a1.937,1.937,0,0,1-1.936,1.893H545.974a2.12,2.12,0,0,1-.874-.171,1.83,1.83,0,0,0,1.888,1.439H566.24a1.937,1.937,0,0,0,1.936-1.893l.313-13.777Z" transform="translate(-544.957 -1886.113)"/><path class="h" d="M635.051,1898.831h11.918a1.648,1.648,0,0,1,1.648,1.648h0a1.648,1.648,0,0,1-1.648,1.648H635.051a1.648,1.648,0,0,1-1.648-1.648h0A1.648,1.648,0,0,1,635.051,1898.831Z" transform="translate(-623.158 -1895.535)"/><path class="h" d="M635.051,1870.017h11.918a1.648,1.648,0,0,1,1.648,1.648h0a1.648,1.648,0,0,1-1.648,1.648H635.051a1.648,1.648,0,0,1-1.648-1.648h0A1.648,1.648,0,0,1,635.051,1870.017Z" transform="translate(-623.158 -1870.017)"/><path class="l" d="M633.459,1885.532a1.648,1.648,0,0,0,1.642,1.521h11.917a1.648,1.648,0,0,0,1.642-1.522Z" transform="translate(-623.208 -1883.757)"/><path class="l" d="M633.459,1914.347a1.648,1.648,0,0,0,1.642,1.522h11.917a1.648,1.648,0,0,0,1.642-1.521Z" transform="translate(-623.208 -1909.276)"/></g><g transform="translate(83.514 213.905)"><path class="h" d="M732.065,1903.86h19.252a1.937,1.937,0,0,0,1.937-1.893l.313-13.777H742.561l-.207,5.961c-.064,1.851-.746,2.488-2.51,3.055a12.138,12.138,0,0,1-4.354.431c-2.75-.148-5.1,1.152-5.365,2.688C729.817,1902.114,730.25,1903.86,732.065,1903.86Z" transform="translate(-730.034 -1886.111)"/><path class="l" d="M753.633,1888.192l-.284,12.51a1.937,1.937,0,0,1-1.936,1.893H732.16a2.118,2.118,0,0,1-.874-.171,1.83,1.83,0,0,0,1.888,1.439h19.252a1.937,1.937,0,0,0,1.936-1.893l.313-13.777Z" transform="translate(-731.143 -1886.113)"/><path class="h" d="M821.241,1898.831h11.917a1.648,1.648,0,0,1,1.648,1.648h0a1.648,1.648,0,0,1-1.648,1.648H821.241a1.648,1.648,0,0,1-1.648-1.648h0A1.648,1.648,0,0,1,821.241,1898.831Z" transform="translate(-809.348 -1895.535)"/><path class="h" d="M821.241,1870.017h11.917a1.648,1.648,0,0,1,1.648,1.648h0a1.648,1.648,0,0,1-1.648,1.648H821.241a1.648,1.648,0,0,1-1.648-1.648h0A1.648,1.648,0,0,1,821.241,1870.017Z" transform="translate(-809.348 -1870.017)"/><path class="l" d="M819.644,1885.532a1.648,1.648,0,0,0,1.642,1.521H833.2a1.648,1.648,0,0,0,1.642-1.522Z" transform="translate(-809.393 -1883.757)"/><path class="l" d="M819.644,1914.347a1.648,1.648,0,0,0,1.642,1.522H833.2a1.648,1.648,0,0,0,1.642-1.522Z" transform="translate(-809.393 -1909.276)"/></g><g transform="translate(54.009 231.63)"><rect class="d" width="58.826" height="8.621" rx="4.311" transform="translate(0.761 3.296)"/><rect class="m" width="60.348" height="8.621" rx="4.311"/><rect class="d" width="60.348" height="1.014" transform="translate(0 2.282)"/></g><path class="h" d="M290.7,389.1h-.507a.507.507,0,1,1,0-1.014h.507a.507.507,0,1,1,0,1.014Zm-5.071,0H283.6a.507.507,0,1,1,0-1.014h2.029a.507.507,0,1,1,0,1.014Zm-6.593,0H277a.507.507,0,1,1,0-1.014h2.029a.507.507,0,0,1,0,1.014Zm-6.593,0h-2.029a.507.507,0,1,1,0-1.014h2.029a.507.507,0,0,1,0,1.014Zm-6.593,0h-2.028a.507.507,0,1,1,0-1.014h2.029a.507.507,0,1,1,0,1.014Zm-6.593,0h-2.028a.507.507,0,0,1,0-1.014h2.029a.507.507,0,1,1,0,1.014Zm-6.593,0h-2.028a.507.507,0,1,1,0-1.014h2.028a.507.507,0,1,1,0,1.014Zm-6.593,0H244.04a.507.507,0,0,1,0-1.014h2.029a.507.507,0,1,1,0,1.014Zm-6.593,0h-2.028a.507.507,0,0,1,0-1.014h2.029a.507.507,0,0,1,0,1.014Zm-6.593,0h-2.028a.507.507,0,1,1,0-1.014h2.029a.507.507,0,0,1,0,1.014Zm-6.593,0h-2.028a.507.507,0,1,1,0-1.014h2.029a.507.507,0,1,1,0,1.014Zm-6.593,0H217.67a.507.507,0,0,1,0-1.014H219.7a.507.507,0,1,1,0,1.014Zm-6.593,0h-2.028a.507.507,0,1,1,0-1.014h2.029a.507.507,0,1,1,0,1.014Zm-6.592,0h-2.028a.507.507,0,1,1,0-1.014h2.029a.507.507,0,0,1,0,1.014Zm-6.593,0h-2.028a.507.507,0,0,1,0-1.014h2.029a.507.507,0,0,1,0,1.014Zm-6.593,0H191.3a.507.507,0,1,1,0-1.014h2.028a.507.507,0,1,1,0,1.014Zm-6.593,0h-2.028a.507.507,0,0,1,0-1.014h2.029a.507.507,0,1,1,0,1.014Zm-6.593,0h-2.028a.507.507,0,0,1,0-1.014h2.029a.507.507,0,1,1,0,1.014Zm-6.593,0h-2.028a.507.507,0,0,1,0-1.014h2.029a.507.507,0,1,1,0,1.014Zm-6.593,0h-2.028a.507.507,0,0,1,0-1.014h2.029a.507.507,0,0,1,0,1.014Zm-6.593,0h-2.028a.507.507,0,1,1,0-1.014h2.029a.507.507,0,1,1,0,1.014Zm-6.593,0h-2.028a.507.507,0,0,1,0-1.014h2.028a.507.507,0,0,1,0,1.014Zm-6.593,0h-2.028a.507.507,0,1,1,0-1.014h2.029a.507.507,0,0,1,0,1.014Z" transform="translate(-128.097 -343.707)"/><path class="h" d="M339.865,2021.26a.505.505,0,0,1-.121-.015l-12.424-3.043a.507.507,0,1,1,.241-.985l12.425,3.043a.507.507,0,0,1-.12,1Z" transform="translate(-289.532 -1786.46)"/><path class="h" d="M564.605,1854.78a.481.481,0,0,1-.066,0,.507.507,0,0,1-.437-.569l1.521-11.664a.507.507,0,1,1,1.006.131l-1.521,11.664A.507.507,0,0,1,564.605,1854.78Z" transform="translate(-499.566 -1631.39)"/></g><path class="n" d="M15.225-98.844H30.077v-30.228c0-9.309,2.929-13.075,9-13.075,6.38,0,7.74,4.6,7.74,10.146v33.157H61.561V-129.8c0-8.263,2.51-12.446,8.786-12.446,6.171,0,7.949,4.811,7.949,9.727v33.68H92.94v-35.563c0-14.016-7.74-19.873-17.154-19.873-8.891,0-13.493,3.87-16.735,8.263-1.883-4.184-6.171-8.263-13.911-8.263-7.949,0-12.342,3.766-15.062,7.74-.1-2.092-.418-5.125-.628-6.485H15.12c.1,4.707.1,9.309.1,14.016Zm91.1,0H121.39v-54.181H106.328Zm15.062-62.967V-175.2H106.328v13.388Z" transform="translate(198.005 347.387)"/></g></svg>