<svg xmlns="http://www.w3.org/2000/svg" xmlns:xlink="http://www.w3.org/1999/xlink" width="560" height="436" viewBox="0 0 560 436"><defs><style>.a{clip-path:url(#a);}.b{fill:#ffdbda;}.c{fill:#ffc1ba;}.d{fill:#09ad51;}.e{fill:#35bf79;}.f{fill:#e9e9e8;}.g{fill:#1d1d1d;}.h,.i{fill:#fff;}.i,.j{stroke:#000;stroke-miterlimit:10;stroke-width:2px;}.j{fill:#d2982b;}.k{fill:#31714d;}.l{fill:#f2f2f2;}.m{fill:#a2e149;}.n{fill:#387c57;}</style><clipPath id="a"><rect width="560" height="436" transform="translate(0 -0.145)"/></clipPath></defs><g class="a" transform="translate(0 0.145)"><g transform="translate(0 -0.063)"><g transform="translate(168.73 78.685)"><g transform="translate(0 0)"><path class="b" d="M908.866,399.9h7.646a8.416,8.416,0,0,1,7.505,2.042c2.15,2.15,2.7,6.338,4.155,8.1a20.606,20.606,0,0,0,2.477,2.527l5.956,5.105-5.771,7.344s-1.943-4.248-8.393-3.672c-5.8.519-11.019-1.58-12.59-4.721s-2.623-2.1-5.77-3.672l4.721-3.672c1.217-1.217,1.574-4.721.525-5.246Z" transform="translate(-891.493 -398.268)"/><g transform="translate(0 1.63)"><rect class="b" width="28.367" height="4.14" rx="2.07"/><path class="c" d="M841.311,410.823c0,.009,0,.018,0,.028a2.07,2.07,0,0,0,2.07,2.071h24.227a2.07,2.07,0,0,0,2.07-2.07h0c0-.009,0-.018,0-.027Z" transform="translate(-841.308 -408.781)"/><path class="c" d="M921.33,413.04s2.326-.927,2.216,2.421,2.284-4.49,2.284-4.49h-4.757Z" transform="translate(-905.076 -408.899)"/></g><rect class="b" width="5.169" height="14.079" rx="2.584" transform="matrix(0.251, -0.968, 0.968, 0.251, 4.589, 13.02)"/><rect class="c" width="3.616" height="8.086" rx="1.808" transform="translate(17.616 9.999) rotate(-30.001)"/><g transform="translate(17.12 0)"><rect class="b" width="4.14" height="8.815" rx="2.07" transform="translate(0.524 9.414) rotate(-30)"/><rect class="b" width="11.54" height="4.14" rx="2.07" transform="translate(0 9.994) rotate(-60)"/></g><g transform="translate(19.742 1.037)"><rect class="c" width="4.14" height="8.815" rx="2.07" transform="translate(0.525 8.378) rotate(-30)"/><rect class="c" width="10.344" height="4.14" rx="2.07" transform="translate(0 8.958) rotate(-60)"/></g><g transform="translate(20.792 0)"><rect class="b" width="4.14" height="8.815" rx="2.07" transform="translate(0.524 9.414) rotate(-30)"/><rect class="b" width="11.54" height="4.14" rx="2.07" transform="translate(0 9.994) rotate(-59.999)"/></g><g transform="translate(25.236 2.624)"><rect class="c" width="3.616" height="10.491" rx="1.808" transform="translate(0 6.549) rotate(-25.733)"/><path class="c" d="M972.377,414.242h0a1.808,1.808,0,0,0,2.419-.827l1.85-3.771c.44-.9.484-3.607-.413-4.045l-.414,1.628a1.808,1.808,0,0,0-2.419.827l-1.85,3.77A1.808,1.808,0,0,0,972.377,414.242Z" transform="translate(-970.517 -405.599)"/></g><g transform="translate(23.087 1.208)"><rect class="c" width="3.616" height="10.491" rx="1.808" transform="translate(0.051 6.916) rotate(-25.733)"/><rect class="c" width="9.229" height="3.615" rx="1.808" transform="matrix(0.525, -0.851, 0.851, 0.525, 0, 7.855)"/></g><g transform="translate(24.187 1.051)"><rect class="b" width="3.616" height="10.491" rx="1.808" transform="translate(0 8.122) rotate(-25.733)"/><rect class="b" width="10.492" height="3.616" rx="1.808" transform="matrix(0.44, -0.898, 0.898, 0.44, 0.239, 9.421)"/></g><path class="c" d="M897.124,465.98" transform="translate(-885.93 -451.246)"/><path class="c" d="M897.124,465.256s5.321.949,7.29,3.862,4.056,3.282,4.056,3.282-3.657-3.519-4.182-6.141S900.974,466.351,897.124,465.256Z" transform="translate(-885.93 -450.522)"/><path class="c" d="M988.625,501.566s3.662-2.478,6.205-1.276,5.215,2.811,5.215,2.811l-1.361,4.173s-1.093-4.424-4.349-5.365Z" transform="translate(-959.08 -478.412)"/></g><g transform="translate(13.035 18.721)"><circle class="d" cx="11.54" cy="11.54" r="11.54" transform="translate(53.061 29.015)"/><path class="d" d="M1029.339,494.638l7.246-8.336a1.286,1.286,0,0,1,1.789-.146l38.886,32.2-14.59,17.707-33.347-39.752A1.285,1.285,0,0,1,1029.339,494.638Z" transform="translate(-1004.41 -485.861)"/><path class="d" d="M906.3,738.972l54-42.882,22.144-3.69-31.473,47.394Z" transform="translate(-906.3 -650.977)"/><path class="d" d="M1155.081,682.833s3.212-2.584-.8-7.83l4.534-2.623,4.037,8.918Z" transform="translate(-1104.543 -634.972)"/></g></g><g transform="translate(94.671 236.477)"><g transform="translate(2.876 50.824)"><path class="b" d="M503.926,1463.692c-1.707-.4-5.173.779-5.064,1.971l-3.107,3.012-4.1-6.629a8.58,8.58,0,0,1-2.257-7.6c.711-3.018,4.045-5.74,4.8-7.952a20.924,20.924,0,0,0,.862-3.505l-.862-10.288,11.558,3.445s-2.641,3.965,1.32,9.246c3.565,4.756,4.544,10.4,2.663,13.45,0,0-.968,5.9-2.174,6.9S503.926,1463.692,503.926,1463.692Z" transform="translate(-488.628 -1432.699)"/><g transform="translate(2.904 24.115)"><rect class="b" width="28.933" height="4.223" rx="2.111" transform="translate(0 28.928) rotate(-88.912)"/><path class="c" d="M511.232,1582.056c.01,0,.019,0,.029,0a2.111,2.111,0,0,0,2.152-2.07h0l.472-24.7a2.111,2.111,0,0,0-2.069-2.151h-.03Z" transform="translate(-509.152 -1553.098)"/><path class="c" d="M515.044,1592.61a31.877,31.877,0,0,1,3.862-4.65c2.14-2.14-5.885.022-5.885.022l-.093,4.851Z" transform="translate(-510.508 -1580.181)"/></g><rect class="b" width="5.27" height="14.357" rx="2.635" transform="matrix(0.968, -0.251, 0.251, 0.968, 11.122, 21.094)"/><path class="c" d="M551.936,1537.9s1.844-.207,2.14.778,4.04,9.008,4.04,9.008,1.07-3.209,2.5-8.1a7.858,7.858,0,0,0,.1-3.618s-.7,3.3-5.39,2.426C555.319,1538.4,553.246,1537.213,551.936,1537.9Z" transform="translate(-538.788 -1515.261)"/><rect class="c" width="8.246" height="3.687" rx="1.844" transform="translate(11.005 29.53) rotate(-61.769)"/><g transform="translate(2.623 21.646)"><rect class="b" width="8.989" height="4.222" rx="2.111" transform="translate(7.388 7.919) rotate(-61.769)"/><rect class="b" width="11.768" height="4.222" rx="2.111" transform="matrix(1, -0.031, 0.031, 1, 0, 6.201)"/></g><g transform="translate(2.434 19.372)"><rect class="c" width="8.989" height="4.222" rx="2.111" transform="translate(6.17 7.919) rotate(-61.769)"/><rect class="c" width="10.553" height="4.224" rx="2.112" transform="matrix(1, -0.031, 0.031, 1, 0, 6.161)"/></g><g transform="translate(0.651 18.462)"><rect class="b" width="8.989" height="4.222" rx="2.111" transform="translate(7.39 7.919) rotate(-61.769)"/><rect class="b" width="11.774" height="4.224" rx="2.112" transform="matrix(1, -0.031, 0.031, 1, 0, 6.199)"/></g><g transform="translate(0.698 14.116)"><rect class="c" width="10.693" height="3.685" rx="1.843" transform="matrix(0.537, -0.843, 0.843, 0.537, 5.641, 9.014)"/><path class="c" d="M499.431,1537.638h0a1.843,1.843,0,0,0-2.014-1.654h0l-4.262.419c-1.013.1-3.387,1.517-3.289,2.53l1.634-.514a1.844,1.844,0,0,0,2.015,1.655l4.261-.421a1.843,1.843,0,0,0,1.656-2.013Z" transform="translate(-489.862 -1529.378)"/></g><g transform="translate(1.087 16.499)"><rect class="c" width="10.693" height="3.685" rx="1.843" transform="matrix(0.537, -0.843, 0.843, 0.537, 5.468, 9.014)"/><rect class="c" width="9.413" height="3.687" rx="1.844" transform="translate(0 6.861) rotate(-0.057)"/></g><g transform="translate(0 15.016)"><rect class="b" width="10.698" height="3.687" rx="1.844" transform="translate(6.901 9.022) rotate(-57.487)"/><rect class="b" width="10.696" height="3.686" rx="1.843" transform="translate(0 7.483) rotate(-5.625)"/></g><path class="c" d="M595.1,1603.731" transform="translate(-573.296 -1569.429)"/><path class="c" d="M563.275,1459.1s-4.115-1.845-4.437-4.7-.361-6.03-.361-6.03l2.66.3a6.093,6.093,0,0,0-.629,5.29Z" transform="translate(-544.018 -1445.234)"/></g><path class="d" d="M493.74,1233.879l-13.969.784a1.559,1.559,0,0,1-1.734-1.184l-6-51.254,23.209-2.942v53.4A1.506,1.506,0,0,1,493.74,1233.879Z" transform="translate(-472.041 -1179.282)"/></g><g transform="translate(122.165 222.708)"><g transform="translate(0.423 21.881)"><circle class="b" cx="7.557" cy="7.557" r="7.557" transform="translate(0 49.07)"/><path class="b" d="M654.349,1219.73l-7.578,56.627H623.026l-.7-56.627Z" transform="translate(-620.098 -1219.73)"/><path class="b" d="M625.834,1502.079l4.63,73.792h21.073l-1.753-73.792Z" transform="translate(-622.907 -1445.452)"/></g><g transform="translate(37.319 21.881)"><circle class="b" cx="7.557" cy="7.557" r="7.557" transform="translate(0 49.07)"/><path class="b" d="M838.318,1219.73l-7.578,56.627H806.994l-.7-56.627Z" transform="translate(-804.067 -1219.73)"/><path class="b" d="M809.8,1502.079l4.63,73.792H835.5l-1.753-73.792Z" transform="translate(-806.873 -1445.452)"/></g><rect class="e" width="72.014" height="50.677" transform="translate(0.444 0.444)"/><g transform="translate(0 0)"><path class="f" d="M612.678,1133.293h-1.333v-20.448h21.782a20.448,20.448,0,0,1-20.448,20.448Z" transform="translate(-610.9 -1112.401)"/><path class="g" d="M610.906,1131.966h-1.778v-21.337H631.8v.444A20.917,20.917,0,0,1,610.906,1131.966Zm-.889-.889h.889a20.028,20.028,0,0,0,20-19.559H610.017Z" transform="translate(-609.128 -1110.629)"/></g><g transform="translate(50.232 0)"><path class="f" d="M861.808,1112.843H883.59v20.448h-1.334a20.448,20.448,0,0,1-20.448-20.448Z" transform="translate(-861.363 -1112.398)"/><path class="g" d="M882.263,1131.966h-1.778a20.917,20.917,0,0,1-20.893-20.893v-.444h22.671Zm-21.777-20.448a20.028,20.028,0,0,0,20,19.559h.889v-19.559Z" transform="translate(-859.592 -1110.629)"/></g><g transform="translate(36.23 22.893)"><path class="h" d="M792.659,1253.892h-1.778v-28.005h1.778Z" transform="translate(-790.659 -1225.664)"/><path class="h" d="M792,1253.228h-2.223v-28.45H792Zm-1.778-.445h1.334v-27.561h-1.334Z" transform="translate(-789.773 -1224.778)"/></g><g transform="translate(30.673)"><path class="h" d="M771.4,1137.294h0a7.112,7.112,0,0,1-7.113-7.113v-17.337H771.4Z" transform="translate(-763.838 -1112.401)"/><path class="h" d="M770.068,1135.967h-.444a7.565,7.565,0,0,1-7.557-7.557v-17.781h8Zm-7.112-24.449v16.892a6.677,6.677,0,0,0,6.223,6.654v-23.545Z" transform="translate(-762.066 -1110.629)"/></g><path class="h" d="M624.061,1242.487a.444.444,0,0,1-.444-.445v-1.333a.445.445,0,0,1,.889,0v1.333A.444.444,0,0,1,624.061,1242.487Zm0-4a.445.445,0,0,1-.445-.445v-1.334a.445.445,0,0,1,.889,0v1.334A.445.445,0,0,1,624.061,1238.486Zm0-4a.444.444,0,0,1-.444-.444v-1.334a.445.445,0,0,1,.889,0v1.334a.444.444,0,0,1-.445.444Zm0-4a.445.445,0,0,1-.445-.445v-1.333a.445.445,0,1,1,.889,0v1.333A.445.445,0,0,1,624.061,1230.484Zm0-4a.444.444,0,0,1-.444-.445v-1.334a.445.445,0,1,1,.889,0v1.334A.445.445,0,0,1,624.061,1226.484Zm0-4a.445.445,0,0,1-.445-.445V1220.7a.445.445,0,0,1,.889,0v1.334A.445.445,0,0,1,624.061,1222.483Zm0-4a.444.444,0,0,1-.444-.445V1216.7a.445.445,0,0,1,.889,0v1.334A.445.445,0,0,1,624.061,1218.482Zm0-4a.445.445,0,0,1-.445-.445V1212.7a.445.445,0,0,1,.889,0v1.334A.445.445,0,0,1,624.061,1214.481Z" transform="translate(-620.711 -1191.876)"/><path class="h" d="M954.319,1242.487a.445.445,0,0,1-.445-.445v-1.333a.445.445,0,0,1,.889,0v1.333a.444.444,0,0,1-.444.445Zm0-4a.445.445,0,0,1-.445-.445v-1.334a.445.445,0,0,1,.889,0v1.334A.444.444,0,0,1,954.319,1238.486Zm0-4a.445.445,0,0,1-.445-.444v-1.334a.445.445,0,0,1,.889,0v1.334A.444.444,0,0,1,954.319,1234.485Zm0-4a.445.445,0,0,1-.445-.445v-1.333a.445.445,0,1,1,.889,0v1.333A.444.444,0,0,1,954.319,1230.484Zm0-4a.445.445,0,0,1-.445-.445v-1.334a.445.445,0,1,1,.889,0v1.334A.444.444,0,0,1,954.319,1226.484Zm0-4a.445.445,0,0,1-.445-.445V1220.7a.445.445,0,0,1,.889,0v1.334a.444.444,0,0,1-.444.444Zm0-4a.445.445,0,0,1-.445-.444V1216.7a.445.445,0,0,1,.889,0v1.334a.444.444,0,0,1-.444.444Zm0-4a.445.445,0,0,1-.445-.445V1212.7a.445.445,0,0,1,.889,0v1.334A.445.445,0,0,1,954.319,1214.481Z" transform="translate(-884.733 -1191.876)"/></g><path class="i" d="M720.66,943.333c2.668-.08,13.881,0,16.1,8,0,0-12.162-3.758-32.45-.444C704.312,950.89,705.89,943.778,720.66,943.333Z" transform="translate(-563.058 -754.168)"/><g transform="translate(141.192 191.836)"><path class="h" d="M714.031,979.347c-1.8-.58-3.872-3.232-5.618-7.215a30.732,30.732,0,0,1-1.9-5.761c-.413-1.958-.332-3.017-.117-3.355a9.2,9.2,0,0,1,3.394-2.909c.281,1.864,1.664,4.236,4.124,7.066a49.835,49.835,0,0,0,3.864,3.944Z" transform="translate(-705.774 -959.424)"/><path d="M707.7,958.068A8.224,8.224,0,0,0,705,960.531a1.946,1.946,0,0,0-.107.918,12.137,12.137,0,0,0,.287,2.124,30.774,30.774,0,0,0,1.883,5.691,22.831,22.831,0,0,0,2.749,4.8,6.89,6.89,0,0,0,2.218,1.995l3.438-7.55a49.74,49.74,0,0,1-3.661-3.763,27.078,27.078,0,0,1-2.892-3.9,10.877,10.877,0,0,1-1.208-2.768m.7-1.368c0,4.445,8.137,11.58,8.137,11.58l-4.036,8.865c-4.89-.889-9.658-14.888-8.261-17.09a10.2,10.2,0,0,1,4.16-3.355Z" transform="translate(-704 -956.7)"/><g transform="translate(9.841 11.579)"><path class="h" d="M757.416,1029.113l-1.7-1.979,1.719-3.376Z" transform="translate(-755.188 -1021.888)"/><path d="M754.868,1018.174l-.736,1.444.726.847.01-2.292m.9-3.737-.035,8.42-2.667-3.112Z" transform="translate(-753.07 -1014.436)"/></g></g><g transform="translate(160.369 191.836)"><g transform="translate(1.394)"><path class="h" d="M813.313,979.689l-4.039-8.573a49.949,49.949,0,0,0,3.861-3.941c2.46-2.829,3.844-5.2,4.124-7.065a9.223,9.223,0,0,1,3.394,2.908c.27.427.3,1.81-.421,4.414a36.289,36.289,0,0,1-3.092,7.491A13.915,13.915,0,0,1,813.313,979.689Z" transform="translate(-808.732 -959.426)"/><path d="M815.409,958.067a10.88,10.88,0,0,1-1.209,2.768,27.08,27.08,0,0,1-2.892,3.9,49.763,49.763,0,0,1-3.654,3.756l3.67,7.79a15.219,15.219,0,0,0,3.265-4.306,35.828,35.828,0,0,0,3.052-7.393,16.112,16.112,0,0,0,.556-2.8,2.43,2.43,0,0,0-.081-1.261,8.224,8.224,0,0,0-2.706-2.463m-.7-1.368a10.2,10.2,0,0,1,4.16,3.354c1.4,2.2-3.466,15.312-7.912,17.535l-4.385-9.309s8.136-7.134,8.136-11.58Z" transform="translate(-806.57 -956.698)"/></g><g transform="translate(0 11.581)"><path class="h" d="M802.827,1027.12l.975-5.892,1.825,3.4Z" transform="translate(-802.183 -1019.867)"/><path d="M801.462,1017.163l-.557,3.364,1.6-1.421-1.042-1.943m-.45-2.722,2.607,4.864-4,3.556Z" transform="translate(-799.618 -1014.441)"/></g></g><g transform="translate(127.512 82.564)"><g transform="translate(0 48.369)"><path class="g" d="M736.448,909.042v-5.557h21.338v9.838S745.116,915.487,736.448,909.042Z" transform="translate(-716.261 -853.254)"/><path class="b" d="M694.03,675.539a5.334,5.334,0,0,0-4.791,1.156c-1.669-13.4-11.147-23.667-22.59-23.667-11.358,0-20.776,10.117-22.548,23.369a5.2,5.2,0,0,0-4.389-.856c-3.093.882-4.684,4.8-3.556,8.757s4.55,6.446,7.641,5.563a4.606,4.606,0,0,0,1.077-.463c2.939,11.261,11.575,19.418,21.774,19.418,10.276,0,18.966-8.28,21.841-19.672a4.647,4.647,0,0,0,1.455.717c3.092.882,6.514-1.608,7.641-5.563S697.122,676.422,694.03,675.539Z" transform="translate(-635.793 -653.028)"/><ellipse class="d" cx="2.445" cy="5.112" rx="2.445" ry="5.112" transform="translate(37.459 20.583)"/><ellipse class="d" cx="2.445" cy="5.112" rx="2.445" ry="5.112" transform="translate(19.298 20.669)"/><path class="d" d="M784.548,789.277a.667.667,0,0,1-.3-1.263l2.222-1.11-1.691-9.463a.667.667,0,1,1,1.312-.234l1.865,10.445-3.112,1.557A.666.666,0,0,1,784.548,789.277Z" transform="translate(-754.181 -751.861)"/><path class="d" d="M732.61,739.558a.66.66,0,0,1-.333-.09c-1.685-.972-4.936-.287-6.047.06a.667.667,0,1,1-.4-1.273c.185-.058,4.576-1.4,7.111.059a.667.667,0,0,1-.334,1.245Z" transform="translate(-707.4 -720.667)"/><path class="d" d="M814.618,739.558a.664.664,0,0,1-.333-.089c-1.685-.972-4.936-.287-6.047.06a.667.667,0,1,1-.4-1.273c.186-.058,4.576-1.4,7.111.059a.667.667,0,0,1-.334,1.245Z" transform="translate(-772.961 -720.667)"/><path class="g" d="M775.666,865.813a.444.444,0,0,1-.09-.88l9.048-1.889a.445.445,0,1,1,.182.87l-9.048,1.889A.475.475,0,0,1,775.666,865.813Z" transform="translate(-747.255 -820.917)"/></g><path class="e" d="M670.223,483.366s8.446-8.891,8.446-16c0,0,18.532,3.45,23.047.613,0,0,6.293,14.5,12.96,16.723,0,0,9.99-20.427-6.224-36.452-8.554-8.455-14.348-5.322-18.67-8.891-5.519-4.557,13.212-19.508,4-26.672-4-3.112-36.007.445-22.844,47.537C670.94,460.222,666.222,472.7,670.223,483.366Z" transform="translate(-661.367 -411.855)"/><path class="j" d="M715.413,655.378" transform="translate(-699.445 -606.538)"/><path class="h" d="M716.983,520.248a.442.442,0,0,1-.257-.082c-13.884-9.853-8.227-28.317-8.168-28.5a.445.445,0,0,1,.848.269c-.057.179-5.516,18.034,7.835,27.509a.444.444,0,0,1-.258.807Z" transform="translate(-693.014 -475.408)"/><path class="h" d="M690.206,574.462a.443.443,0,0,1-.228-.063c-2.842-1.7-4.79-5.3-5.634-10.4a35.282,35.282,0,0,1-.429-7.193.445.445,0,1,1,.887.055c-.008.129-.725,12.962,5.633,16.777a.445.445,0,0,1-.229.826Z" transform="translate(-674.238 -527.4)"/></g><path class="k" d="M0,436.154H197.423c92.384,0,151.23-55.683,151.23-130.35,0-57.582-38.6-88.587-68.339-99.975C310.053,192.541,336,160.9,336,111.547,336,54.6,296.133.18,190.461.18H0ZM92.384,172.29V72.946h90.485c36.068,0,60.113,16.452,60.113,48.09,0,31.006-18.351,51.254-63.276,51.254Zm0,72.77h84.793c51.887,0,74.667,22.147,74.667,57.582,0,39.231-22.779,60.745-74.033,60.745H92.384Z" transform="translate(0 -0.18)"/><g transform="translate(122.588 293.658)"><circle class="b" cx="7.557" cy="7.557" r="7.557"/><path class="b" d="M625.834,1502.079l4.63,73.792h21.073l-1.753-73.792Z" transform="translate(-622.907 -1494.522)"/><g transform="translate(36.896)"><circle class="b" cx="7.557" cy="7.557" r="7.557"/><path class="b" d="M809.8,1502.079l4.63,73.792H835.5l-1.753-73.792Z" transform="translate(-806.873 -1494.522)"/></g></g><path class="h" d="M49.769,1832.082v3.779h9.922c-2.85,3.647-6.627,11.072-7.459,17.281h4.7c.832-6.113,4.1-12.93,7.424-17.667v-3.393Zm31.748,21.06.578-3.808H72.107c.352-.96,1.408-2.178,4-4,3.873-2.72,5.217-4.193,5.217-7.265,0-3.137-1.856-6.37-7.266-6.37-4.865,0-7.233,3.041-7.521,6.657h4.417c.288-1.823,1.023-3.1,3.1-3.1,1.76,0,2.657,1.023,2.657,2.848,0,1.856-.9,2.592-3.873,4.769-4.577,3.329-6.209,6.305-6.209,9.986v.288Zm15.905-23.364H92.816v23.364h4.607v-5.313l2.112-2.048,4.195,7.36h5.185l-6.305-10.306,5.761-6.275h-5.249c-2.3,2.784-4.481,5.345-5.7,7.009Zm28.038,11.554c0-1.6.032-3.265.032-4.769h-4.321c-.032.288-.16,1.28-.192,1.729-.256-.768-1.44-2.113-4.289-2.113-4.129,0-7.233,3.553-7.233,8.738,0,4.448,2.5,8.034,6.849,8.034,2.433,0,3.809-.9,4.673-2.337v.8c0,3.232-.578,5.057-3.553,5.057-1.76,0-2.593-.768-2.913-1.92h-4.671c.16,1.888,1.344,5.249,7.394,5.249,6.273,0,8.224-3.361,8.224-8.674Zm-11.3,3.393c0-3.329,1.568-4.865,3.553-4.865,2.912,0,3.393,1.921,3.393,4.705s-.736,4.673-3.489,4.673c-2.016,0-3.456-1.664-3.456-4.513Zm27.173-14.435.8,16.291h2.722l.8-16.291Zm2.145,18.02a2.341,2.341,0,0,0-1.728.672,2.4,2.4,0,0,0,0,3.457,2.363,2.363,0,0,0,1.728.7,2.6,2.6,0,0,0,1.792-.672,2.44,2.44,0,0,0,.7-1.76,2.364,2.364,0,0,0-.7-1.729,2.543,2.543,0,0,0-1.792-.672Z" transform="translate(-39.787 -1462.84)"/><path class="h" d="M772.287,233.61V212.518h-3.265a9.707,9.707,0,0,1-5.214,2.848v3.422a14.1,14.1,0,0,0,3.809-.928V233.61Zm11.682.384c4.8,0,8.258-2.24,8.258-6.593a5.507,5.507,0,0,0-3.423-5.121,4.179,4.179,0,0,0,2.687-4.223c0-3.649-2.848-5.889-7.2-5.889-4.737,0-7.329,2.369-7.329,5.953a4.748,4.748,0,0,0,2.592,4.385,5.6,5.6,0,0,0-3.457,5.057c0,4.16,3.552,6.432,7.873,6.432Zm.286-3.553c-2.145,0-3.553-1.248-3.553-3.137,0-1.76,1.183-3.008,3.457-3.008,2.048,0,3.49.96,3.49,3.041,0,2.145-1.438,3.1-3.393,3.1Zm-.062-14.755c1.888,0,2.945.992,2.945,2.593,0,1.665-1.023,2.368-2.88,2.368-1.953,0-2.979-.96-2.979-2.368,0-1.664.994-2.592,2.915-2.592Zm18.852-3.521c-6.049,0-8.163,5.153-8.163,10.914,0,5.823,1.888,10.914,8.066,10.914,6.273,0,8.1-5.249,8.1-11.042,0-5.985-2.112-10.786-8-10.786Zm0,3.649c2.752,0,3.265,3.073,3.265,7.169,0,4.129-.384,7.36-3.3,7.36-2.978,0-3.423-3.457-3.423-7.329,0-4.543.766-7.2,3.454-7.2Zm29.028,12.45a2.823,2.823,0,0,1-2.848,2.178c-1.984,0-3.265-1.6-3.265-5.153,0-3.2,1.184-5.023,3.3-5.023a2.59,2.59,0,0,1,2.848,2.272h4.449c-.064-1.856-1.632-5.889-7.2-5.889-5.057,0-8.034,3.9-8.034,8.8,0,4.994,2.657,8.546,7.81,8.546,4.929,0,6.881-2.978,7.424-5.729Zm7.393,5.345h4.545v-9.249c0-2.848.9-4,2.753-4,1.952,0,2.369,1.408,2.369,3.1V233.61h4.515v-9.473c0-2.528.768-3.809,2.688-3.809,1.888,0,2.432,1.472,2.432,2.978v10.3h4.481V222.728c0-4.289-2.369-6.081-5.249-6.081a5.809,5.809,0,0,0-5.121,2.528,4.373,4.373,0,0,0-4.257-2.528,5.208,5.208,0,0,0-4.609,2.368c-.032-.64-.128-1.568-.192-1.984h-4.384c.032,1.44.032,2.848.032,4.289Zm39.687-22.852.8,16.291h2.721l.8-16.291Zm2.145,18.02a2.339,2.339,0,0,0-1.727.672,2.4,2.4,0,0,0,0,3.457,2.362,2.362,0,0,0,1.728.7,2.6,2.6,0,0,0,1.792-.672,2.437,2.437,0,0,0,.7-1.76,2.363,2.363,0,0,0-.7-1.728,2.544,2.544,0,0,0-1.792-.672Z" transform="translate(-610.621 -168.525)"/><g transform="translate(109.072 375.008)"><path class="h" d="M547.409,1915.662h33.752a3.4,3.4,0,0,0,3.395-3.318l.549-24.154h-19.3l-.363,10.45c-.113,3.245-1.309,4.361-4.4,5.357a21.292,21.292,0,0,1-7.633.756c-4.822-.259-8.943,2.02-9.406,4.712C543.469,1912.6,544.227,1915.662,547.409,1915.662Z" transform="translate(-543.848 -1884.545)"/><path class="l" d="M584.277,1888.192l-.5,21.931a3.4,3.4,0,0,1-3.395,3.318H546.631a3.71,3.71,0,0,1-1.531-.3,3.208,3.208,0,0,0,3.309,2.522h33.753a3.4,3.4,0,0,0,3.395-3.319l.549-24.153Z" transform="translate(-544.849 -1884.547)"/><path class="h" d="M636.293,1898.831h20.893a2.889,2.889,0,0,1,2.889,2.89h0a2.89,2.89,0,0,1-2.889,2.89H636.293a2.89,2.89,0,0,1-2.89-2.89h0a2.889,2.889,0,0,1,2.889-2.89Z" transform="translate(-615.442 -1893.052)"/><path class="h" d="M636.293,1870.017h20.893a2.889,2.889,0,0,1,2.889,2.889h0a2.889,2.889,0,0,1-2.889,2.889H636.293a2.889,2.889,0,0,1-2.89-2.889h0a2.889,2.889,0,0,1,2.889-2.889Z" transform="translate(-615.442 -1870.017)"/><path class="l" d="M633.459,1885.532a2.889,2.889,0,0,0,2.878,2.667H657.23a2.889,2.889,0,0,0,2.878-2.667Z" transform="translate(-615.487 -1882.421)"/><path class="l" d="M633.459,1914.347a2.889,2.889,0,0,0,2.878,2.668H657.23a2.889,2.889,0,0,0,2.878-2.668Z" transform="translate(-615.487 -1905.456)"/></g><g transform="translate(146.413 375.008)"><path class="h" d="M733.595,1915.662h33.752a3.4,3.4,0,0,0,3.4-3.318l.549-24.154H752l-.363,10.45c-.113,3.245-1.309,4.361-4.4,5.357a21.293,21.293,0,0,1-7.633.756c-4.822-.259-8.943,2.02-9.406,4.712C729.654,1912.6,730.413,1915.662,733.595,1915.662Z" transform="translate(-730.034 -1884.545)"/><path class="l" d="M770.463,1888.192l-.5,21.931a3.4,3.4,0,0,1-3.395,3.318H732.818a3.71,3.71,0,0,1-1.531-.3,3.208,3.208,0,0,0,3.309,2.522h33.752a3.4,3.4,0,0,0,3.395-3.318l.549-24.154Z" transform="translate(-731.035 -1884.547)"/><path class="h" d="M822.482,1898.831h20.892a2.889,2.889,0,0,1,2.889,2.89h0a2.89,2.89,0,0,1-2.889,2.89H822.482a2.89,2.89,0,0,1-2.889-2.89h0A2.889,2.889,0,0,1,822.482,1898.831Z" transform="translate(-801.631 -1893.052)"/><path class="h" d="M822.482,1870.017h20.892a2.889,2.889,0,0,1,2.889,2.889h0a2.889,2.889,0,0,1-2.889,2.889H822.482a2.889,2.889,0,0,1-2.889-2.889h0A2.889,2.889,0,0,1,822.482,1870.017Z" transform="translate(-801.631 -1870.017)"/><path class="l" d="M819.644,1885.532a2.89,2.89,0,0,0,2.878,2.668h20.893a2.89,2.89,0,0,0,2.878-2.668Z" transform="translate(-801.672 -1882.421)"/><path class="l" d="M819.644,1914.347a2.889,2.889,0,0,0,2.878,2.668h20.893a2.889,2.889,0,0,0,2.878-2.668Z" transform="translate(-801.672 -1905.456)"/></g><g transform="translate(94.685 406.083)"><rect class="d" width="103.132" height="15.114" rx="7.557" transform="translate(1.334 5.779)"/><rect class="m" width="105.799" height="15.114" rx="7.557"/><rect class="d" width="105.799" height="1.778" transform="translate(0 4.001)"/></g><path class="h" d="M400.695,389.86h-.889a.889.889,0,1,1,0-1.778h.889a.889.889,0,1,1,0,1.778Zm-8.891,0h-3.556a.889.889,0,1,1,0-1.778H391.8a.889.889,0,0,1,0,1.778Zm-11.558,0H376.69a.889.889,0,1,1,0-1.778h3.556a.889.889,0,1,1,0,1.778Zm-11.558,0h-3.556a.889.889,0,0,1,0-1.778h3.556a.889.889,0,1,1,0,1.778Zm-11.558,0h-3.555a.889.889,0,1,1,0-1.778h3.556a.889.889,0,1,1,0,1.778Zm-11.558,0h-3.556a.889.889,0,1,1,0-1.778h3.556a.889.889,0,1,1,0,1.778Zm-11.558,0h-3.556a.889.889,0,1,1,0-1.778h3.556a.889.889,0,1,1,0,1.778Zm-11.558,0H318.9a.889.889,0,1,1,0-1.778h3.556a.889.889,0,1,1,0,1.778Zm-11.558,0h-3.556a.889.889,0,0,1,0-1.778H310.9a.889.889,0,0,1,0,1.778Zm-11.558,0h-3.556a.889.889,0,1,1,0-1.778h3.556a.889.889,0,1,1,0,1.778Zm-11.558,0h-3.556a.889.889,0,1,1,0-1.778h3.556a.889.889,0,0,1,0,1.778Zm-11.558,0h-3.556a.889.889,0,0,1,0-1.778h3.556a.889.889,0,1,1,0,1.778Zm-11.558,0h-3.556a.889.889,0,1,1,0-1.778h3.557a.889.889,0,1,1,0,1.778Zm-11.558,0h-3.556a.889.889,0,1,1,0-1.778h3.556a.889.889,0,0,1,0,1.778Zm-11.558,0H238a.889.889,0,1,1,0-1.778h3.556a.889.889,0,1,1,0,1.778Zm-11.558,0h-3.556a.889.889,0,1,1,0-1.778h3.556a.889.889,0,0,1,0,1.778Zm-11.558,0H214.88a.889.889,0,1,1,0-1.778h3.556a.889.889,0,1,1,0,1.778Zm-11.558,0h-3.556a.889.889,0,0,1,0-1.778h3.556a.889.889,0,1,1,0,1.778Zm-11.558,0h-3.556a.889.889,0,1,1,0-1.778h3.556a.889.889,0,1,1,0,1.778Zm-11.558,0h-3.556a.889.889,0,0,1,0-1.778h3.557a.889.889,0,1,1,0,1.778Zm-11.558,0h-3.556a.889.889,0,1,1,0-1.778h3.556a.889.889,0,1,1,0,1.778Zm-11.558,0h-3.556a.889.889,0,1,1,0-1.778h3.556a.889.889,0,1,1,0,1.778Zm-11.558,0h-3.556a.889.889,0,0,1,0-1.778h3.556a.889.889,0,1,1,0,1.778Z" transform="translate(-115.635 -310.286)"/><path class="h" d="M349.6,2024.316a.876.876,0,0,1-.212-.026l-21.782-5.335a.889.889,0,1,1,.423-1.726l21.782,5.335a.889.889,0,0,1-.211,1.753Z" transform="translate(-261.364 -1612.676)"/><path class="h" d="M564.988,1864.328a.927.927,0,0,1-.116-.007.889.889,0,0,1-.767-1l2.667-20.449a.889.889,0,1,1,1.763.23l-2.667,20.448A.889.889,0,0,1,564.988,1864.328Z" transform="translate(-450.964 -1472.692)"/></g><path class="n" d="M15.3-41.337H41.343v-53c0-16.32,5.134-22.922,15.77-22.922,11.186,0,13.57,8.068,13.57,17.787v58.13H96.538V-95.616c0-14.487,4.4-21.821,15.4-21.821,10.819,0,13.936,8.435,13.936,17.054v59.045H151.55v-62.347c0-24.572-13.57-34.841-30.073-34.841-15.587,0-23.655,6.785-29.34,14.487-3.3-7.335-10.819-14.487-24.389-14.487-13.936,0-21.638,6.6-26.406,13.57-.183-3.668-.733-8.985-1.1-11.369H15.12c.183,8.252.183,16.32.183,24.572Zm159.719,0h26.406v-94.988H175.022Zm26.406-110.391V-175.2H175.022v23.472Z" transform="translate(358.52 477.283)"/></g></svg>